<?xml version="1.0" encoding="utf-8"?>
<!-- Generator: Adobe Illustrator 16.0.0, SVG Export Plug-In . SVG Version: 6.00 Build 0)  -->
<!DOCTYPE svg PUBLIC "-//W3C//DTD SVG 1.1//EN" "http://www.w3.org/Graphics/SVG/1.1/DTD/svg11.dtd">
<svg version="1.1" id="picking" xmlns="http://www.w3.org/2000/svg" xmlns:xlink="http://www.w3.org/1999/xlink" x="0px" y="0px"
	 width="667px" height="640px" viewBox="0 0 667 640" enable-background="new 0 0 667 640" xml:space="preserve">
<g id="A1">
	<rect x="139" y="285" fill="#1B1464" width="32" height="33"/>
	<polygon fill="#1B1464" points="171,292 188.5,297 187.75,302 203.875,306 193.938,342 167.969,337 176.484,318.25 171,316 	"/>
	<polygon fill="#1B1464" points="212,346 208,364 162,358 166,339 	"/>
</g>
<g id="A2">
	<polygon fill="#1B1464" points="172,250 224,250 224,253 235.5,253 231.417,268.5 194,265.5 194,274.5 172,277.833 	"/>
</g>
<g id="A3">
	<polygon fill="#1B1464" points="213,346 212,352 227,354 228,349 	"/>
	<polygon fill="#1B1464" points="229,349 252,352 245,403 222,400 	"/>
	<polygon fill="#1B1464" points="253,352 251,371 276,375 271,407 295,410 302,359 	"/>
	<polygon fill="#1B1464" points="303,360 301,378 326,382 321,413 344,417 351,366 	"/>
	<polygon fill="#1B1464" points="352,367 350,385 374,388 370,420 394,424 400,374 	"/>
	<polygon fill="#1B1464" points="401,341 419,341 412,364 407,364 	"/>
	<polygon fill="#1B1464" points="416,366 422,368 439,350 422.833,341.5 	"/>
	<polygon fill="#1B1464" points="441.667,352.5 450.75,369.167 429.375,377 424,373.167 424,369 	"/>
	<polygon fill="#1B1464" points="399,399 422,404 415,429 438,435 445.596,404.528 450.763,405.105 453,387 401,374 	"/>
	<polygon fill="#1B1464" points="405,365 415,365 424,369.813 424,374.5 430.5,381.375 405.167,375.042 	"/>
	<polygon fill="#1B1464" points="454,387 453,405.834 472,411 464,442 486,447.834 496,408 489,405 490.5,396 	"/>
</g>
<g id="A4">
	<rect x="246" y="249" fill="#1B1464" width="25" height="62"/>
	<polygon fill="#1B1464" points="306,304 306,323.5 256,325.5 256,312 272,312 272,304 	"/>
</g>
<g id="A5">
	<rect x="307" y="249" fill="#1B1464" width="24" height="76"/>
</g>
<g id="A6">
	<rect x="407" y="306" fill="#1B1464" width="24" height="20"/>
	<rect x="332" y="304" fill="#1B1464" width="74" height="21"/>
	<polygon fill="#1B1464" points="407,265 407,303 357,303 357,293 359,293 359,265 	"/>
	<polygon fill="#1B1464" points="359,264 424,264 424,253 382,253 382,249 359,249 	"/>
	<rect x="369" y="235" fill="#1B1464" width="2" height="14"/>
</g>
<g id="A7">
	<polygon fill="#1B1464" points="466,194 484,194 484,210 482,210 482,213 476,213 476,210 466,210 	"/>
	<rect x="434" y="214" fill="#1B1464" width="50" height="20"/>
	<polygon fill="#1B1464" points="434,325 459,325 459,249 447,249 447,235 445,235 445,249 434,249 	"/>
	<polygon fill="#1B1464" points="460,304 460,325 493,325 493,310 484,310 484,304 	"/>
	<polygon fill="#1B1464" points="509,309 485,309 485,249 495,249 495,252 499,252 499,249 509,249 	"/>
</g>
<g id="A8">
	<polygon fill="#1B1464" points="480.833,332 480.75,363.75 504.375,361.875 513.667,326 493,326 493,335.5 	"/>
</g>
<g id="A9">
	<polygon fill="#1B1464" points="494,310 494,325 515,325 515,319.5 535,324.5 535,310 	"/>
	<polygon fill="#1B1464" points="536,318.25 560,324.5 560,249 548,249 548,235 546,235 546,249 536,249 	"/>
</g>
<g id="A10">
	<rect x="510" y="215" fill="#1B1464" width="50" height="19"/>
	<rect x="510" y="197" fill="#1B1464" width="50" height="17"/>
	<rect x="510" y="177" fill="#1B1464" width="50" height="19"/>
	<rect x="510" y="152" fill="#1B1464" width="50" height="24"/>
</g>
<g id="A11">
	<rect x="541" y="77" fill="#1B1464" width="12" height="14"/>
	<polygon fill="#1B1464" points="543,100.75 566,104.625 571,88.5 571,83.5 557.25,79.5 554,81.5 554,92 543.5,92 	"/>
</g>
<g id="A12">
	<polygon fill="#1B1464" points="494,35 494,68 535,68 535,52 527,52 527,35 	"/>
	<rect x="494" y="75" fill="#1B1464" width="41" height="32"/>
</g>
<g id="A13">
	<polygon fill="#1B1464" points="457,83 457,107 407,107 407,95 409,95 409,83 	"/>
	<polygon fill="#1B1464" points="418,82 457,82 457,59 455.5,59 447.5,65.5 434.5,71 424.25,74.875 418,76.875 	"/>
</g>
<g id="A14">
	<polygon fill="#1B1464" points="438,185 452,185 452,200 461,200 461,210 438,210 	"/>
</g>
<g id="A15">
	<rect x="357" y="152" fill="#1B1464" width="37" height="20"/>
	<rect x="357" y="173" fill="#1B1464" width="37" height="61"/>
	<polygon fill="#1B1464" points="434,199 395,199 395,234 424,234 424,229 432,229 432,213 434,213 	"/>
	<rect x="395" y="152" fill="#1B1464" width="39" height="46"/>
</g>
<g id="A16">
	<rect x="307" y="219" fill="#1B1464" width="7" height="11"/>
	<polygon fill="#1B1464" points="331,188 331,214 320,214 320,194 322,194 322,188 	"/>
	<rect x="321" y="216" fill="#1B1464" width="10" height="13"/>
</g>
<g id="A17">
	<polygon fill="#1B1464" points="522.75,375 541.875,379 533.771,418 517,413 517,407 514.75,406.167 	"/>
	<polygon fill="#1B1464" points="542.75,380.75 563.875,384.625 556,423 549,423 535,418.25 	"/>
</g>
<g id="A18">
	<polygon fill="#1B1464" points="424,562.83 443,584 483,545 467.667,530 457.167,537 453,536 	"/>
	<polygon fill="#1B1464" points="483,547 499,563.831 490,573.831 488.167,581 460.333,605 444,585 	"/>
	<polygon fill="#1B1464" points="447,603 452.281,611 456,611 460.039,604.889 456.435,600.352 453,603.188 	"/>
</g>
<g id="A19">
	<polygon fill="#1B1464" points="265,584 279.5,582 280.75,586 271.375,588 265,586 	"/>
	<polygon fill="#1B1464" points="307.813,605.25 306.906,621.125 337.328,617.563 334.5,602 331,602 329.75,597.25 327,603.125 	"/>
	<polygon fill="#1B1464" points="284,624 284,632 302.75,629 305.75,624 304.938,591 288.969,594.625 293.734,622 	"/>
</g>
</svg>
