<?xml version="1.0" encoding="utf-8"?>
<!-- Generator: Adobe Illustrator 16.0.0, SVG Export Plug-In . SVG Version: 6.00 Build 0)  -->
<!DOCTYPE svg PUBLIC "-//W3C//DTD SVG 1.1//EN" "http://www.w3.org/Graphics/SVG/1.1/DTD/svg11.dtd">
<svg version="1.1" id="picking" xmlns="http://www.w3.org/2000/svg" xmlns:xlink="http://www.w3.org/1999/xlink" x="0px" y="0px"
	 width="667px" height="640px" viewBox="0 0 667 640" enable-background="new 0 0 667 640" xml:space="preserve">
<g id="A1">
	<rect x="139" y="286" fill="#0000FF" width="32" height="33"/>
	<polygon fill="#0000FF" points="189,297 189,301 188,301 188,307 187,307 187,308 185,308 185,311 183,311 183,310 182,310 
		182,309 178,309 178,308 174,308 174,307 172,307 172,292 173,292 173,293 177,293 177,294 181,294 181,295 185,295 185,296 
		188,296 188,297 	"/>
	<polygon fill="#0000FF" points="182,311 182,312 181,312 181,317 180,317 180,321 179,321 179,326 178,326 178,331 177,331 
		177,334 176,334 176,333 175,333 175,332 173,332 173,330 174,330 174,325 176,325 176,320 177,320 177,317 174,317 174,316 
		172,316 172,308 173,308 173,309 177,309 177,310 181,310 181,311 	"/>
	<polygon fill="#0000FF" points="212,346 212,349 211,349 211,355 210,355 210,362 208,362 208,365 205,365 205,363 197,363 
		197,362 189,362 189,361 181,361 181,360 173,360 173,359 165,359 165,358 162,358 162,355 163,355 163,351 164,351 164,346 
		165,346 165,342 166,342 166,337 168,337 168,334 169,334 169,333 174,333 174,335 178,335 178,332 179,332 179,327 180,327 
		180,322 181,322 181,318 182,318 182,313 183,313 183,312 186,312 186,309 188,309 188,308 189,308 189,302 195,302 195,304 
		198,304 198,305 203,305 203,307 204,307 204,308 203,308 203,312 202,312 202,316 201,316 201,320 199,320 199,324 198,324 
		198,328 197,328 197,332 196,332 196,336 195,336 195,338 196,338 196,341 195,341 195,344 199,344 199,345 208,345 208,346 	"/>
</g>
<g id="A2">
	<polygon fill="#0000FF" points="235,253 235,257 233,257 233,266 232,266 232,269 230,269 230,268 226,268 226,267 223,267 
		223,266 194,266 194,275 176,275 176,278 172,278 172,268 177,268 177,264 172,264 172,250 224,250 224,253 	"/>
</g>
<g id="A3">
	<polygon fill="#0000FF" points="228,349 228,352 227,352 227,354 223,354 223,353 218,353 218,352 212,352 212,349 213,349 
		213,346 214,346 214,347 221,347 221,349 	"/>
	<polygon fill="#0000FF" points="431,363 432,363 432,367 429,367 429,365 431,365 	"/>
	<polygon fill="#0000FF" points="436,358 435,358 435,356 436,356 436,355 438,355 438,356 437,356 437,357 436,357 	"/>
	<rect x="430" y="361" fill="#0000FF" width="1" height="1"/>
	<polygon fill="#0000FF" points="433,361 431,361 431,360 432,360 432,359 433,359 433,358 435,358 435,359 434,359 434,360 
		433,360 	"/>
	<polygon fill="#0000FF" points="426,368 424,368 424,367 425,367 425,366 427,366 427,367 426,367 	"/>
	<polygon fill="#0000FF" points="428,366 427,366 427,363 429,363 429,362 430,362 430,364 428,364 	"/>
	<rect x="401" y="348" fill="#0000FF" width="1" height="5"/>
	<polygon fill="#0000FF" points="404,356 404,360 403,360 403,357 402,357 402,353 403,353 403,356 	"/>
	<polygon fill="#0000FF" points="497,408 497,409 496,409 496,413 495,413 495,418 494,418 494,421 493,421 493,426 491,426 
		491,430 490,430 490,435 489,435 489,438 488,438 488,443 487,443 487,447 486,447 486,449 485,449 485,447 480,447 480,446 
		477,446 477,445 472,445 472,444 469,444 469,443 464,443 464,442 463,442 463,441 464,441 464,436 465,436 465,433 466,433 
		466,429 468,429 468,425 469,425 469,421 470,421 470,418 471,418 471,413 472,413 472,411 470,411 470,410 465,410 465,409 
		461,409 461,408 457,408 457,407 453,407 453,405 448,405 448,404 446,404 446,407 445,407 445,411 444,411 444,416 443,416 
		443,420 441,420 441,425 440,425 440,429 439,429 439,434 438,434 438,435 436,435 436,434 431,434 431,433 427,433 427,432 
		422,432 422,430 418,430 418,429 415,429 415,428 416,428 416,424 418,424 418,419 419,419 419,416 420,416 420,411 421,411 
		421,407 422,407 422,404 420,404 420,403 415,403 415,402 412,402 412,401 407,401 407,400 404,400 404,399 399,399 399,397 
		397,397 397,403 396,403 396,411 395,411 395,420 394,420 394,424 390,424 390,422 381,422 381,421 373,421 373,420 370,420 
		370,417 371,417 371,409 372,409 372,401 373,401 373,393 374,393 374,388 370,388 370,387 361,387 361,386 353,386 353,385 
		348,385 348,390 347,390 347,397 346,397 346,405 345,405 345,413 344,413 344,417 340,417 340,416 332,416 332,415 324,415 
		324,413 321,413 321,410 322,410 322,402 323,402 323,394 324,394 324,386 326,386 326,382 321,382 321,380 313,380 313,379 
		304,379 304,378 299,378 299,383 298,383 298,391 297,391 297,399 296,399 296,407 295,407 295,410 291,410 291,409 283,409 
		283,408 274,408 274,407 271,407 271,403 272,403 272,395 273,395 273,387 274,387 274,379 276,379 276,375 271,375 271,374 
		263,374 263,372 254,372 254,371 249,371 249,376 248,376 248,384 247,384 247,392 246,392 246,400 245,400 245,403 241,403 
		241,402 233,402 233,401 226,401 226,400 222,400 222,396 223,396 223,387 224,387 224,378 226,378 226,370 227,370 227,361 
		228,361 228,353 229,353 229,349 232,349 232,350 240,350 240,351 248,351 248,352 256,352 256,353 264,353 264,354 271,354 
		271,355 279,355 279,357 287,357 287,358 295,358 295,359 303,359 303,360 311,360 311,361 319,361 319,362 327,362 327,363 
		335,363 335,365 343,365 343,366 351,366 351,367 357,367 357,368 365,368 365,369 373,369 373,370 381,370 381,371 389,371 
		389,372 397,372 397,374 406,374 406,368 405,368 405,365 404,365 404,360 405,360 405,363 406,363 406,365 413,365 413,363 
		414,363 414,360 415,360 415,356 416,356 416,353 417,353 417,348 419,348 419,346 420,346 420,349 419,349 419,353 418,353 
		418,358 416,358 416,362 415,362 415,367 418,367 418,368 420,368 420,369 423,369 423,368 424,368 424,375 426,375 426,377 
		428,377 428,380 430,380 430,382 435,382 435,383 439,383 439,384 444,384 444,385 448,385 448,386 453,386 453,387 457,387 
		457,388 461,388 461,390 465,390 465,391 470,391 470,392 474,392 474,393 479,393 479,394 484,394 484,395 488,395 488,396 
		491,396 491,399 490,399 490,401 489,401 489,405 491,405 491,407 496,407 496,408 	"/>
	<polygon fill="#0000FF" points="419,341 419,343 418,343 418,347 416,347 416,352 415,352 415,355 414,355 414,359 413,359 
		413,362 412,362 412,364 407,364 407,362 406,362 406,359 405,359 405,355 404,355 404,352 403,352 403,347 402,347 402,343 
		401,343 401,341 	"/>
	<polygon fill="#0000FF" points="439,350 439,351 438,351 438,352 437,352 437,353 436,353 436,354 435,354 435,355 434,355 
		434,357 432,357 432,358 431,358 431,359 430,359 430,360 429,360 429,361 428,361 428,362 426,362 426,365 424,365 424,366 
		423,366 423,367 422,367 422,368 421,368 421,367 419,367 419,366 416,366 416,363 417,363 417,359 419,359 419,354 420,354 
		420,350 421,350 421,345 422,345 422,342 426,342 426,343 428,343 428,344 429,344 429,345 431,345 431,346 434,346 434,347 
		435,347 435,349 437,349 437,350 	"/>
	<polygon fill="#0000FF" points="451,367 451,370 447,370 447,371 443,371 443,372 438,372 438,374 434,374 434,375 431,375 
		431,376 430,376 430,377 429,377 429,376 427,376 427,374 425,374 425,369 427,369 427,368 428,368 428,367 429,367 429,365 
		431,365 431,363 432,363 432,362 434,362 434,361 435,361 435,360 436,360 436,359 437,359 437,358 438,358 438,357 439,357 
		439,355 440,355 440,354 441,354 441,353 443,353 443,355 444,355 444,358 445,358 445,359 446,359 446,361 447,361 447,363 
		448,363 448,365 449,365 449,367 	"/>
</g>
<g id="A4">
	<polygon fill="#0000FF" points="306,304 306,324 268,324 268,325 256,325 256,311 246,311 246,249 256,249 256,253 261,253 
		261,249 271,249 271,304 	"/>
</g>
<g id="A5">
	<polygon fill="#0000FF" points="331,249 331,325 308,325 308,324 307,324 307,249 316,249 316,253 321,253 321,249 	"/>
</g>
<g id="A6">
	<polygon fill="#0000FF" points="424,254 424,264 407,264 407,305 406,305 406,325 332,325 332,304 357,304 357,293 359,293 
		359,249 369,249 369,235 371,235 371,249 382,249 382,253 413,253 413,254 	"/>
	<rect x="407" y="306" fill="#0000FF" width="24" height="20"/>
</g>
<g id="A7">
	<rect x="466" y="194" fill="#0000FF" width="18" height="16"/>
	<rect x="476" y="211" fill="#0000FF" width="6" height="2"/>
	<rect x="434" y="214" fill="#0000FF" width="50" height="20"/>
	<polygon fill="#0000FF" points="459,249 459,325 434,325 434,249 445,249 445,235 447,235 447,249 	"/>
	<polygon fill="#0000FF" points="509,249 509,309 493,309 493,325 460,325 460,304 485,304 485,249 495,249 495,252 499,252 
		499,249 	"/>
</g>
<g id="A8">
	<polygon fill="#0000FF" points="514,326 514,327 513,327 513,332 512,332 512,336 511,336 511,341 510,341 510,344 509,344 
		509,349 507,349 507,353 506,353 506,358 505,358 505,362 504,362 504,363 502,363 502,362 497,362 497,361 491,361 491,362 
		487,362 487,363 482,363 482,365 481,365 481,332 482,332 482,333 487,333 487,334 491,334 491,335 494,335 494,326 	"/>
</g>
<g id="A9">
	<polygon fill="#0000FF" points="560,249 560,325 559,325 559,324 554,324 554,322 549,322 549,321 546,321 546,320 541,320 
		541,319 537,319 537,318 535,318 535,325 532,325 532,324 528,324 528,322 523,322 523,321 519,321 519,320 515,320 515,324 
		514,324 514,325 494,325 494,310 536,310 536,249 546,249 546,235 548,235 548,249 	"/>
</g>
<g id="A10">
	<polygon fill="#0000FF" points="560,152 560,234 510,234 510,214 511,214 511,210 510,210 510,197 511,197 511,193 510,193 
		510,177 511,177 511,172 510,172 510,160 511,160 511,155 510,155 510,152 	"/>
</g>
<g id="A11">
	<rect x="541" y="77" fill="#0000FF" width="12" height="14"/>
	<polygon fill="#0000FF" points="568,85 568,86 566,86 566,90 565,90 565,94 564,94 564,99 563,99 563,100 558,100 558,99 554,99 
		554,98 553,98 553,97 549,97 549,96 547,96 547,92 554,92 554,82 556,82 556,83 561,83 561,84 565,84 565,85 	"/>
	<polygon fill="#0000FF" points="572,84 572,85 571,85 571,89 570,89 570,93 569,93 569,97 568,97 568,101 566,101 566,105 565,105 
		565,107 564,107 564,105 560,105 560,104 555,104 555,103 552,103 552,102 547,102 547,101 543,101 543,100 541,100 541,99 543,99 
		543,92 546,92 546,97 548,97 548,99 553,99 553,100 557,100 557,101 562,101 562,102 564,102 564,100 565,100 565,95 566,95 
		566,91 568,91 568,87 569,87 569,84 566,84 566,83 562,83 562,82 557,82 557,80 563,80 563,82 568,82 568,83 571,83 571,84 	"/>
</g>
<g id="A12">
	<polygon fill="#0000FF" points="535,52 535,68 494,68 494,35 527,35 527,52 	"/>
	<rect x="494" y="75" fill="#0000FF" width="41" height="28"/>
	<rect x="494" y="104" fill="#0000FF" width="41" height="3"/>
</g>
<g id="A13">
	<polygon fill="#0000FF" points="457,83 457,103 407,103 407,95 409,95 409,83 	"/>
	<rect x="407" y="104" fill="#0000FF" width="50" height="3"/>
	<polygon fill="#0000FF" points="457,68 457,82 418,82 418,77 421,77 421,76 424,76 424,75 428,75 428,74 430,74 430,72 434,72 
		434,71 437,71 437,70 439,70 439,69 441,69 441,68 	"/>
	<polygon fill="#0000FF" points="457,59 457,67 446,67 446,66 447,66 447,64 449,64 449,63 451,63 451,62 452,62 452,61 454,61 
		454,60 455,60 455,59 	"/>
</g>
<g id="A14">
	<polygon fill="#0000FF" points="461,200 461,210 438,210 438,185 452,185 452,200 	"/>
</g>
<g id="A15">
	<polygon fill="#0000FF" points="434,152 434,213 432,213 432,229 424,229 424,234 357,234 357,152 	"/>
</g>
<g id="A16">
	<polygon fill="#0000FF" points="331,188 331,214 320,214 320,194 322,194 322,188 	"/>
	<rect x="323" y="216" fill="#0000FF" width="6" height="2"/>
	<rect x="321" y="219" fill="#0000FF" width="10" height="10"/>
	<rect x="307" y="219" fill="#0000FF" width="7" height="11"/>
</g>
<g id="A17">
	<polygon fill="#0000FF" points="564,384 564,391 563,391 563,395 562,395 562,400 561,400 561,404 560,404 560,409 559,409 
		559,413 557,413 557,418 556,418 556,422 549,422 549,421 547,421 547,420 541,420 541,419 538,419 538,418 534,418 534,417 
		530,417 530,416 526,416 526,415 522,415 522,413 518,413 518,407 515,407 515,405 516,405 516,401 518,401 518,396 519,396 
		519,392 520,392 520,388 521,388 521,384 522,384 522,379 523,379 523,375 530,375 530,376 535,376 535,378 538,378 538,379 
		543,379 543,380 547,380 547,382 552,382 552,383 560,383 560,384 	"/>
</g>
<g id="A18">
	<polygon fill="#0000FF" points="499,563 499,565 498,565 498,566 496,566 496,567 495,567 495,568 494,568 494,569 493,569 
		493,570 492,570 492,572 491,572 491,573 490,573 490,576 491,576 491,579 490,579 490,581 487,581 487,582 486,582 486,583 
		485,583 485,584 484,584 484,585 482,585 482,586 481,586 481,587 479,587 479,589 478,589 478,590 477,590 477,591 476,591 
		476,592 475,592 475,593 474,593 474,594 473,594 473,595 470,595 470,596 469,596 469,598 468,598 468,599 467,599 467,600 
		465,600 465,601 464,601 464,603 463,603 463,604 461,604 461,605 459,605 459,607 458,607 458,608 457,608 457,609 456,609 
		456,610 452,610 452,608 451,608 451,607 450,607 450,605 449,605 449,604 447,604 447,603 453,603 453,602 455,602 455,601 
		456,601 456,596 453,596 453,595 452,595 452,594 451,594 451,593 450,593 450,591 449,591 449,590 448,590 448,589 447,589 
		447,587 446,587 446,586 444,586 444,585 443,585 443,584 442,584 442,583 441,583 441,582 440,582 440,579 439,579 439,578 
		438,578 438,577 436,577 436,576 435,576 435,575 434,575 434,574 433,574 433,573 432,573 432,572 431,572 431,569 430,569 
		430,568 429,568 429,567 427,567 427,566 426,566 426,565 425,565 425,564 424,564 424,562 425,562 425,561 426,561 426,560.52 
		427,560.5 427,559 431,559 431,558 433,558 433,557 434,557 434,556 435,556 435,554 436,554 436,553 438,553 438,552 439,552 
		439,551 440,551 440,550 441,550 441,548 442,548 442,547 443,547 443,545 447,545 447,544 448,544 448,543 449,543 449,542 
		450,542 450,541 451,541 451,539 452,539 452,537 453,537 453,536 456,536 456,537 458,537 458,536 460,536 460,535 461,535 
		461,534 462,534 462,533 464,533 464,532 465,532 465,531 466,531 466,530 469,530 469,531 470,531 470,532 472,532 472,533 
		473,533 473,535 474,535 474,536 475,536 475,537 476,537 476,539 477,539 477,540 478,540 478,541 479,541 479,542 481,542 
		481,543 482,543 482,544 483,544 483,545 484,545 484,548 485,548 485,550 486,550 486,551 487,551 487,552 489,552 489,553 
		490,553 490,554 491,554 491,556 492,556 492,557 494,557 494,558 495,558 495,561 496,561 496,562 498,562 498,563 	"/>
</g>
<g id="A19">
	<polygon fill="#0000FF" points="338,615 338,617 333,617 333,618 327,618 327,619 319,619 319,620 312,620 312,621 305,621 
		305,625 303,625 303,629 299,629 299,630 290,630 290,632 285,632 285,624 290,624 290,622 294,622 294,618 293,618 293,611 
		291,611 291,604 290,604 290,597 289,597 289,594 294,594 294,596 298,596 298,593 297,593 297,592 301,592 301,591 305,591 
		305,594 306,594 306,601 307,601 307,605 314,605 314,604 320,604 320,603 327,603 327,602 328,602 328,599 329,599 329,597 
		331,597 331,599 332,599 332,601 335,601 335,603 336,603 336,609 337,609 337,615 	"/>
	<polygon fill="#0000FF" points="281,583 281,586 279,586 279,587 272,587 272,588 268,588 268,586 266,586 266,584 269,584 
		269,583 277,583 277,582 280,582 280,583 	"/>
</g>
</svg>
