<?xml version="1.0" encoding="utf-8"?>
<!-- Generator: Adobe Illustrator 16.0.0, SVG Export Plug-In . SVG Version: 6.00 Build 0)  -->
<!DOCTYPE svg PUBLIC "-//W3C//DTD SVG 1.1//EN" "http://www.w3.org/Graphics/SVG/1.1/DTD/svg11.dtd">
<svg version="1.1" id="picking" xmlns="http://www.w3.org/2000/svg" xmlns:xlink="http://www.w3.org/1999/xlink" x="0px" y="0px"
	 width="1000px" height="640px" viewBox="0 0 1000 640" enable-background="new 0 0 1000 640" xml:space="preserve">
<g id="A19">
	<polygon fill="#0000FF" points="671,615 671,617 666,617 666,618 660,618 660,619 652,619 652,620 645,620 645,621 638,621 
		638,625 636,625 636,629 632,629 632,630 623,630 623,632 618,632 618,624 623,624 623,622 627,622 627,618 626,618 626,611 
		624,611 624,604 623,604 623,597 622,597 622,594 627,594 627,596 631,596 631,593 630,593 630,592 634,592 634,591 638,591 
		638,594 639,594 639,601 640,601 640,605 647,605 647,604 653,604 653,603 660,603 660,602 661,602 661,599 662,599 662,597 
		664,597 664,599 665,599 665,601 668,601 668,603 669,603 669,609 670,609 670,615 	"/>
	<polygon fill="#0000FF" points="614,583 614,586 612,586 612,587 605,587 605,588 601,588 601,586 599,586 599,584 602,584 
		602,583 610,583 610,582 613,582 613,583 	"/>
</g>
<g id="A18">
	<polygon fill="#0000FF" points="832,563 832,565 831,565 831,566 829,566 829,567 828,567 828,568 827,568 827,569 826,569 
		826,570 825,570 825,572 824,572 824,573 823,573 823,576 824,576 824,579 823,579 823,581 820,581 820,582 819,582 819,583 
		818,583 818,584 817,584 817,585 815,585 815,586 814,586 814,587 812,587 812,589 811,589 811,590 810,590 810,591 809,591 
		809,592 808,592 808,593 807,593 807,594 806,594 806,595 803,595 803,596 802,596 802,598 801,598 801,599 800,599 800,600 
		798,600 798,601 797,601 797,603 796,603 796,604 794,604 794,605 792,605 792,607 791,607 791,608 790,608 790,609 789,609 
		789,610 785,610 785,608 784,608 784,607 783,607 783,605 782,605 782,604 780,604 780,603 786,603 786,602 788,602 788,601 
		789,601 789,596 786,596 786,595 785,595 785,594 784,594 784,593 783,593 783,591 782,591 782,590 781,590 781,589 780,589 
		780,587 779,587 779,586 777,586 777,585 776,585 776,584 775,584 775,583 774,583 774,582 773,582 773,579 772,579 772,578 
		771,578 771,577 769,577 769,576 768,576 768,575 767,575 767,574 766,574 766,573 765,573 765,572 764,572 764,569 763,569 
		763,568 762,568 762,567 760,567 760,566 759,566 759,565 758,565 758,564 757,564 757,562 758,562 758,561 759,561 759,560.52 
		760,560.5 760,559 764,559 764,558 766,558 766,557 767,557 767,556 768,556 768,554 769,554 769,553 771,553 771,552 772,552 
		772,551 773,551 773,550 774,550 774,548 775,548 775,547 776,547 776,545 780,545 780,544 781,544 781,543 782,543 782,542 
		783,542 783,541 784,541 784,539 785,539 785,537 786,537 786,536 789,536 789,537 791,537 791,536 793,536 793,535 794,535 
		794,534 795,534 795,533 797,533 797,532 798,532 798,531 799,531 799,530 802,530 802,531 803,531 803,532 805,532 805,533 
		806,533 806,535 807,535 807,536 808,536 808,537 809,537 809,539 810,539 810,540 811,540 811,541 812,541 812,542 814,542 
		814,543 815,543 815,544 816,544 816,545 817,545 817,548 818,548 818,550 819,550 819,551 820,551 820,552 822,552 822,553 
		823,553 823,554 824,554 824,556 825,556 825,557 827,557 827,558 828,558 828,561 829,561 829,562 831,562 831,563 	"/>
</g>
<g id="A17">
	<polygon fill="#0000FF" points="897,384 897,391 896,391 896,395 895,395 895,400 894,400 894,404 893,404 893,409 892,409 
		892,413 890,413 890,418 889,418 889,422 882,422 882,421 880,421 880,420 874,420 874,419 871,419 871,418 867,418 867,417 
		863,417 863,416 859,416 859,415 855,415 855,413 851,413 851,407 848,407 848,405 849,405 849,401 851,401 851,396 852,396 
		852,392 853,392 853,388 854,388 854,384 855,384 855,379 856,379 856,375 863,375 863,376 868,376 868,378 871,378 871,379 
		876,379 876,380 880,380 880,382 885,382 885,383 893,383 893,384 	"/>
</g>
<g id="A16">
	<polygon fill="#0000FF" points="664,188 664,214 653,214 653,194 655,194 655,188 	"/>
	<rect x="656" y="216" fill="#0000FF" width="6" height="2"/>
	<rect x="654" y="219" fill="#0000FF" width="10" height="10"/>
	<rect x="640" y="219" fill="#0000FF" width="7" height="11"/>
</g>
<g id="A15">
	<polygon fill="#0000FF" points="767,152 767,213 765,213 765,229 757,229 757,234 690,234 690,152 	"/>
</g>
<g id="A14">
	<polygon fill="#0000FF" points="794,200 794,210 771,210 771,185 785,185 785,200 	"/>
</g>
<g id="A13">
	<polygon fill="#0000FF" points="790,83 790,103 740,103 740,95 742,95 742,83 	"/>
	<rect x="740" y="104" fill="#0000FF" width="50" height="3"/>
	<polygon fill="#0000FF" points="790,68 790,82 751,82 751,77 754,77 754,76 757,76 757,75 761,75 761,74 763,74 763,72 767,72 
		767,71 770,71 770,70 772,70 772,69 774,69 774,68 	"/>
	<polygon fill="#0000FF" points="790,59 790,67 779,67 779,66 780,66 780,64 782,64 782,63 784,63 784,62 785,62 785,61 787,61 
		787,60 788,60 788,59 	"/>
</g>
<g id="A12">
	<polygon fill="#0000FF" points="868,52 868,68 827,68 827,35 860,35 860,52 	"/>
	<rect x="827" y="75" fill="#0000FF" width="41" height="28"/>
	<rect x="827" y="104" fill="#0000FF" width="41" height="3"/>
</g>
<g id="A11">
	<rect x="874" y="77" fill="#0000FF" width="12" height="14"/>
	<polygon fill="#0000FF" points="901,85 901,86 899,86 899,90 898,90 898,94 897,94 897,99 896,99 896,100 891,100 891,99 887,99 
		887,98 886,98 886,97 882,97 882,96 880,96 880,92 887,92 887,82 889,82 889,83 894,83 894,84 898,84 898,85 	"/>
	<polygon fill="#0000FF" points="905,84 905,85 904,85 904,89 903,89 903,93 902,93 902,97 901,97 901,101 899,101 899,105 898,105 
		898,107 897,107 897,105 893,105 893,104 888,104 888,103 885,103 885,102 880,102 880,101 876,101 876,100 874,100 874,99 876,99 
		876,92 879,92 879,97 881,97 881,99 886,99 886,100 890,100 890,101 895,101 895,102 897,102 897,100 898,100 898,95 899,95 
		899,91 901,91 901,87 902,87 902,84 899,84 899,83 895,83 895,82 890,82 890,80 896,80 896,82 901,82 901,83 904,83 904,84 	"/>
</g>
<g id="A10">
	<polygon fill="#0000FF" points="893,152 893,234 843,234 843,214 844,214 844,210 843,210 843,197 844,197 844,193 843,193 
		843,177 844,177 844,172 843,172 843,160 844,160 844,155 843,155 843,152 	"/>
</g>
<g id="A9">
	<polygon fill="#0000FF" points="893,249 893,325 892,325 892,324 887,324 887,322 882,322 882,321 879,321 879,320 874,320 
		874,319 870,319 870,318 868,318 868,325 865,325 865,324 861,324 861,322 856,322 856,321 852,321 852,320 848,320 848,324 
		847,324 847,325 827,325 827,310 869,310 869,249 879,249 879,235 881,235 881,249 	"/>
</g>
<g id="A8">
	<polygon fill="#0000FF" points="847,326 847,327 846,327 846,332 845,332 845,336 844,336 844,341 843,341 843,344 842,344 
		842,349 840,349 840,353 839,353 839,358 838,358 838,362 837,362 837,363 835,363 835,362 830,362 830,361 824,361 824,362 
		820,362 820,363 815,363 815,365 814,365 814,332 815,332 815,333 820,333 820,334 824,334 824,335 827,335 827,326 	"/>
</g>
<g id="A7">
	<rect x="799" y="194" fill="#0000FF" width="18" height="16"/>
	<rect x="809" y="211" fill="#0000FF" width="6" height="2"/>
	<rect x="767" y="214" fill="#0000FF" width="50" height="20"/>
	<polygon fill="#0000FF" points="792,249 792,325 767,325 767,249 778,249 778,235 780,235 780,249 	"/>
	<polygon fill="#0000FF" points="842,249 842,309 826,309 826,325 793,325 793,304 818,304 818,249 828,249 828,252 832,252 
		832,249 	"/>
</g>
<g id="A6">
	<polygon fill="#0000FF" points="757,254 757,264 740,264 740,305 739,305 739,325 665,325 665,304 690,304 690,293 692,293 
		692,249 702,249 702,235 704,235 704,249 715,249 715,253 746,253 746,254 	"/>
	<rect x="740" y="306" fill="#0000FF" width="24" height="20"/>
</g>
<g id="A5">
	<polygon fill="#0000FF" points="664,249 664,325 641,325 641,324 640,324 640,249 649,249 649,253 654,253 654,249 	"/>
</g>
<g id="A4">
	<polygon fill="#0000FF" points="639,304 639,324 601,324 601,325 589,325 589,311 579,311 579,249 589,249 589,253 594,253 
		594,249 604,249 604,304 	"/>
</g>
<g id="A3">
	<polygon fill="#0000FF" points="561,349 561,352 560,352 560,354 556,354 556,353 551,353 551,352 545,352 545,349 546,349 
		546,346 547,346 547,347 554,347 554,349 	"/>
	<polygon fill="#0000FF" points="764,363 765,363 765,367 762,367 762,365 764,365 	"/>
	<polygon fill="#0000FF" points="769,358 768,358 768,356 769,356 769,355 771,355 771,356 770,356 770,357 769,357 	"/>
	<rect x="763" y="361" fill="#0000FF" width="1" height="1"/>
	<polygon fill="#0000FF" points="766,361 764,361 764,360 765,360 765,359 766,359 766,358 768,358 768,359 767,359 767,360 
		766,360 	"/>
	<polygon fill="#0000FF" points="759,368 757,368 757,367 758,367 758,366 760,366 760,367 759,367 	"/>
	<polygon fill="#0000FF" points="761,366 760,366 760,363 762,363 762,362 763,362 763,364 761,364 	"/>
	<rect x="734" y="348" fill="#0000FF" width="1" height="5"/>
	<polygon fill="#0000FF" points="737,356 737,360 736,360 736,357 735,357 735,353 736,353 736,356 	"/>
	<polygon fill="#0000FF" points="830,408 830,409 829,409 829,413 828,413 828,418 827,418 827,421 826,421 826,426 824,426 
		824,430 823,430 823,435 822,435 822,438 821,438 821,443 820,443 820,447 819,447 819,449 818,449 818,447 813,447 813,446 
		810,446 810,445 805,445 805,444 802,444 802,443 797,443 797,442 796,442 796,441 797,441 797,436 798,436 798,433 799,433 
		799,429 801,429 801,425 802,425 802,421 803,421 803,418 804,418 804,413 805,413 805,411 803,411 803,410 798,410 798,409 
		794,409 794,408 790,408 790,407 786,407 786,405 781,405 781,404 779,404 779,407 778,407 778,411 777,411 777,416 776,416 
		776,420 774,420 774,425 773,425 773,429 772,429 772,434 771,434 771,435 769,435 769,434 764,434 764,433 760,433 760,432 
		755,432 755,430 751,430 751,429 748,429 748,428 749,428 749,424 751,424 751,419 752,419 752,416 753,416 753,411 754,411 
		754,407 755,407 755,404 753,404 753,403 748,403 748,402 745,402 745,401 740,401 740,400 737,400 737,399 732,399 732,397 
		730,397 730,403 729,403 729,411 728,411 728,420 727,420 727,424 723,424 723,422 714,422 714,421 706,421 706,420 703,420 
		703,417 704,417 704,409 705,409 705,401 706,401 706,393 707,393 707,388 703,388 703,387 694,387 694,386 686,386 686,385 
		681,385 681,390 680,390 680,397 679,397 679,405 678,405 678,413 677,413 677,417 673,417 673,416 665,416 665,415 657,415 
		657,413 654,413 654,410 655,410 655,402 656,402 656,394 657,394 657,386 659,386 659,382 654,382 654,380 646,380 646,379 
		637,379 637,378 632,378 632,383 631,383 631,391 630,391 630,399 629,399 629,407 628,407 628,410 624,410 624,409 616,409 
		616,408 607,408 607,407 604,407 604,403 605,403 605,395 606,395 606,387 607,387 607,379 609,379 609,375 604,375 604,374 
		596,374 596,372 587,372 587,371 582,371 582,376 581,376 581,384 580,384 580,392 579,392 579,400 578,400 578,403 574,403 
		574,402 566,402 566,401 559,401 559,400 555,400 555,396 556,396 556,387 557,387 557,378 559,378 559,370 560,370 560,361 
		561,361 561,353 562,353 562,349 565,349 565,350 573,350 573,351 581,351 581,352 589,352 589,353 597,353 597,354 604,354 
		604,355 612,355 612,357 620,357 620,358 628,358 628,359 636,359 636,360 644,360 644,361 652,361 652,362 660,362 660,363 
		668,363 668,365 676,365 676,366 684,366 684,367 690,367 690,368 698,368 698,369 706,369 706,370 714,370 714,371 722,371 
		722,372 730,372 730,374 739,374 739,368 738,368 738,365 737,365 737,360 738,360 738,363 739,363 739,365 746,365 746,363 
		747,363 747,360 748,360 748,356 749,356 749,353 750,353 750,348 752,348 752,346 753,346 753,349 752,349 752,353 751,353 
		751,358 749,358 749,362 748,362 748,367 751,367 751,368 753,368 753,369 756,369 756,368 757,368 757,375 759,375 759,377 
		761,377 761,380 763,380 763,382 768,382 768,383 772,383 772,384 777,384 777,385 781,385 781,386 786,386 786,387 790,387 
		790,388 794,388 794,390 798,390 798,391 803,391 803,392 807,392 807,393 812,393 812,394 817,394 817,395 821,395 821,396 
		824,396 824,399 823,399 823,401 822,401 822,405 824,405 824,407 829,407 829,408 	"/>
	<polygon fill="#0000FF" points="752,341 752,343 751,343 751,347 749,347 749,352 748,352 748,355 747,355 747,359 746,359 
		746,362 745,362 745,364 740,364 740,362 739,362 739,359 738,359 738,355 737,355 737,352 736,352 736,347 735,347 735,343 
		734,343 734,341 	"/>
	<polygon fill="#0000FF" points="772,350 772,351 771,351 771,352 770,352 770,353 769,353 769,354 768,354 768,355 767,355 
		767,357 765,357 765,358 764,358 764,359 763,359 763,360 762,360 762,361 761,361 761,362 759,362 759,365 757,365 757,366 
		756,366 756,367 755,367 755,368 754,368 754,367 752,367 752,366 749,366 749,363 750,363 750,359 752,359 752,354 753,354 
		753,350 754,350 754,345 755,345 755,342 759,342 759,343 761,343 761,344 762,344 762,345 764,345 764,346 767,346 767,347 
		768,347 768,349 770,349 770,350 	"/>
	<polygon fill="#0000FF" points="784,367 784,370 780,370 780,371 776,371 776,372 771,372 771,374 767,374 767,375 764,375 
		764,376 763,376 763,377 762,377 762,376 760,376 760,374 758,374 758,369 760,369 760,368 761,368 761,367 762,367 762,365 
		764,365 764,363 765,363 765,362 767,362 767,361 768,361 768,360 769,360 769,359 770,359 770,358 771,358 771,357 772,357 
		772,355 773,355 773,354 774,354 774,353 776,353 776,355 777,355 777,358 778,358 778,359 779,359 779,361 780,361 780,363 
		781,363 781,365 782,365 782,367 	"/>
</g>
<g id="A2">
	<polygon fill="#0000FF" points="568,253 568,257 566,257 566,266 565,266 565,269 563,269 563,268 559,268 559,267 556,267 
		556,266 527,266 527,275 509,275 509,278 505,278 505,268 510,268 510,264 505,264 505,250 557,250 557,253 	"/>
</g>
<g id="A1">
	<rect x="472" y="286" fill="#0000FF" width="32" height="33"/>
	<polygon fill="#0000FF" points="522,297 522,301 521,301 521,307 520,307 520,308 518,308 518,311 516,311 516,310 515,310 
		515,309 511,309 511,308 507,308 507,307 505,307 505,292 506,292 506,293 510,293 510,294 514,294 514,295 518,295 518,296 
		521,296 521,297 	"/>
	<polygon fill="#0000FF" points="515,311 515,312 514,312 514,317 513,317 513,321 512,321 512,326 511,326 511,331 510,331 
		510,334 509,334 509,333 508,333 508,332 506,332 506,330 507,330 507,325 509,325 509,320 510,320 510,317 507,317 507,316 
		505,316 505,308 506,308 506,309 510,309 510,310 514,310 514,311 	"/>
	<polygon fill="#0000FF" points="545,346 545,349 544,349 544,355 543,355 543,362 541,362 541,365 538,365 538,363 530,363 
		530,362 522,362 522,361 514,361 514,360 506,360 506,359 498,359 498,358 495,358 495,355 496,355 496,351 497,351 497,346 
		498,346 498,342 499,342 499,337 501,337 501,334 502,334 502,333 507,333 507,335 511,335 511,332 512,332 512,327 513,327 
		513,322 514,322 514,318 515,318 515,313 516,313 516,312 519,312 519,309 521,309 521,308 522,308 522,302 528,302 528,304 
		531,304 531,305 536,305 536,307 537,307 537,308 536,308 536,312 535,312 535,316 534,316 534,320 532,320 532,324 531,324 
		531,328 530,328 530,332 529,332 529,336 528,336 528,338 529,338 529,341 528,341 528,344 532,344 532,345 541,345 541,346 	"/>
</g>
</svg>
