<?xml version="1.0" encoding="utf-8"?>
<!-- Generator: Adobe Illustrator 16.0.0, SVG Export Plug-In . SVG Version: 6.00 Build 0)  -->
<!DOCTYPE svg PUBLIC "-//W3C//DTD SVG 1.1//EN" "http://www.w3.org/Graphics/SVG/1.1/DTD/svg11.dtd">
<svg version="1.1" xmlns="http://www.w3.org/2000/svg" xmlns:xlink="http://www.w3.org/1999/xlink" x="0px" y="0px" width="1280px"
	 height="800px" viewBox="0 0 1280 800" enable-background="new 0 0 1280 800" xml:space="preserve">
<g id="Layer_3">
	<path fill="#666666" stroke="#000000" stroke-miterlimit="10" d="M932.5,566.5v-12h-14v-1h-34v2h-10v-1h-1V553l-1-0.88v-1.62h-1
		v-165h6v-12h4v145h41v-243h-41v91h-4v-84h4v-7h-10v-39h-1v-1h-2v-1h-1v-1h-1v-1h-2v-1h-1v-1h-1v-1h-2v-1h-1v-1h-1v-1h-2v-1h-1v-1
		h-1v-1h-2v-1h-1v-1h-1v-1h-2v-1h-1v-1h-1v-1h-2v-1h-1v-1h-1v-1h-2v-1h-1v-1h-1v-1h-2v-1h-1v-1h-1v-1h-2v-1h-1v-2h-2v2h-1v1l0,0v1
		h-2v-1h-1v-1h-2v-1h-1v-1h-1v-1h-1v-1h-2v7h5v13h12v2h4v1h4v1h4v1h4v1h4v1h2v1h1v1h1v1h2v1h1v1h1v1h1v12h-1v2h-1v1h-1v2h-17v1h-5
		v-1h-22v1h-40v-2h-28v2H703l-1-2h-44.5v1h-3v1h-2v1h-1v1h-1v1h-1v1h-1v2h-1v2h-1v99h-1v2h-1v1h-2v1h-3v1h-166v1h-3v1h-2v1h-2v1h-1
		v1h-1v1h-1v1h-1v2h-1v3h-1v3h-1v4h-1v3h-1v4h-1v3h-1v4h-1v3h-1v4h-1v3h-1v3h-1v4h-1v3h-1v4h-1v3h-1v4h-1v3h-1v4h-1v3h-1v4h-1v3h-1
		v4h-1v3h-1v4h-1v3h-1v3h-1v4h-1v3h-1v4h-1v3h-1v4h-1v6h-1v1h-1v2h-1v2h-1v1h-8v-1h-4v-1h-3v-1h-2v-1h-2v-1h-1v-1h-2v-1h-2v-1h-1v-1
		h-2v-1h-1v-1h-2v-1h-2v-1h-4v-1h-3v-1h-4v-1h-3v-1h-4v-1h-4v-1h-4v-1h-2v-1h-2v-1h-1v-2h-1v-2h-1v-6h1v-4h1v-3h1v-4h1v-3h1v-4h1v-3
		h1v-3h1v-4h1v-3h1v-4h1v-3h1v-4h1v-3h1v-3h1v-4h1v-3h1v-3h1v-4h1v-4h1v-3h1v-4h1v-3h1v-3h1v-4h1v-3h1v-3h1v-4h1v-3h1v-3h1v-4h1v-4
		h1v-4h1v-4h1v-4h1v-4h1v-3h1v-4h1v-3h1v-3h1v-4h1v-4h1v-4h1v-3h1v-4h1v-4h1v-4h1v-3h1v-4h1v-4h1v-4h1v-3h1v-4h1v-4h1v-4h1v-3h1v-4
		h1v-4h1v-4h1v-3h1v-4h1v-4h1v-4h1v-3h1v-4h1v-4h1v-4h1v-3h1v-4h1v-4h1v-4h1v-3h1v-4h1v-4h1v-4h1v-4h1v-3h1v-2h-12v2h-1v3h-1v4h-1v4
		h-1v4h-1v4h-1v4h-1v3h-1v4h-1v4h-1v4h-1v3h-1v4h-1v4h-1v4h-1v4h-1v3h-1v4h-1v4h-1v4h-1v3h-1v4h-1v4h-1v4h-1v4h-1v3h-1v4h-1v4h-1v4
		h-1v3h-1v4h-1v4h-1v4h-1v4h-1v3h-1v4h-1v4h-1v4h-1v3h-1v4h-1v4h-1v3h-1v4h-1v4h-1v3h-1v4h-1v4h-1v5h-1v3h-1v4h-1v3h-1v3h-1v2h-1v1
		h-1v2h-1v1h-1v1h-1v2h-1v1h-2v1h-2v1h-2v1h-2v1h-2v1h-12v9h1v1h2v1h1v1h2v1h1v1h1v2h1v1h1v2h1v1h1v1h1v2h1v14h-1v3h-1v2h-1v3h-1v3
		h-1v4h-1v4h-1v4h-1v3h-1v3h-1v4h-1v3h-1v3h-1v3h-1v42h1v-3h1v-4h1v-3h1v-3h1v-4h1v-3h1v-2h1v-1h2v-1h2v-1h6v1h5v1h2v1h4v1h3v1h4v1
		h3v1h4v1h11v1h11v1h3v1h4v1h3v1h3v1h4v1h3v1h3v1h4v1h3v1h3v1h4v1h3v1h3v1h4v1h3v1h3v1h5v1h2v1h2v2h1v1h3v1h4v1h3v1h3v1h3v1h4v1h3v1
		h3v1h4v1h3v1h3v1h3v1h4v1h3v1h3v1h3v1h4v1h3v1h3v1h4v1h3v1h2v-3h3v1h4v1h2v1h4v1h3v1h4v1h2v1h2v1h1v1h1v2h1v6h-1v4h-1v3h-1v3h-1v4
		h-1v3h-1v3h-1v4h-1v3h-1v4h-1v5h1v8h1v4h1v2h1v2h1v2h1v1h1v2h1v1h1v1h1v1h1v1h1v1h1v1h1v1h1v1h2v1h1v1h1v1h2v1h1v1h2v1h1v1h2v1h1v1
		h1v1h2v1h1v1h2v1h1v1h2v1h1v1h1v1h2v1h1v1h2v1h1v1h1v1h2v1h1v1h2v1h1v1h2v1h1v1h1v1h2v1h1v1h2v1h1v1h2v1h1v1h1v1h2v1h1v1h2v1h1v1h2
		v1h1v1h1v1h2v1h1v1h1v1h2v1h1v1h1v1h1v2h1v2h1v3h1v4h1v6h1v8h1v8h1v6h2v4h2v4h3v4h7v-4h-1v-5h-3v-3h-2v-6h-1v-9h-1v-8h-1v-6h-1v-4
		h-1v-3h-1v-2h-1v-2h-1v-1h-1v-2h-1v-1h-1v-2h-1v-1h-1v-1h-2v-1h-1v-1h-1v-1h-2v-1h-1v-1h-1v-1h-2v-1h-1v-1h-2v-1h-1v-1h-2v-1h-1v-1
		h-1v-1h-2v-1h-1v-1h-2v-1h-1v-1h-2v-1h-1v-1h-1v-1h-2v-1h-1v-1h-2v-1h-1v-1h-1v-1h-2v-1h-1v-1h-2v-1h-1v-1h-2v-1h-1v-1h-1v-1h-2v-1
		h-1v-1h-2v-1h-1v-1h-2v-1h-1v-1h-1v-1h-2v-1h-1v-1h-2v-1h-1v-1h-2v-1h-1v-1h-1v-1h-2v-1h-1v-1h-1v-1h-1v-1h-1v-1h-1v-1h-1v-1h-1v-2
		h-1v-2h-1v-2h-1v-2h-1v-2h-1v-7h2v1h1v1h2v1h1v1h2v1h1v1h2v1h1v1h1v1h2v1h1v1h3v2h-1v2h-1v1h-1v2h2v1h1v1h1v1h2v1h1v1h2v1h1v1h1v1
		h2v1h1v1h2v1h1v1h1v1h2v1h1v1h2v1h1v1h2v1h1v1h1v1h2v1h1v1h2v1h1v1h1v1h2v1h1v1h2v1h1v1h1v1h2v1h1v1h2v1h1v1h1v1h2v1h1v1h2v1h1v1h1
		v1h2v1h1v1h2v1h1v1h1v1h2v1h1v1h2v1h1v1h2v1h1v1h1v1h2v1h1v1h2v1h1v1h1v1h2v1h1v1h2v1h2v2h2v1h2v1h2v1h3v1h3v1h13v-1h6v-7h4v1h3v1
		h2v1h2v1h1v1h1v1h1v1h1v1h1v1h1v2h1v1h1v1h1v1h1v1h1v1h1v1h1v1h1v1h1v1h1v1h1v2h1v1h1v1h1v1h1v1h1v1h-2v2h-12v-1h-24v1h-7v1h-5v1
		h-4v1h-6v1h-8v1h-4v4h3v-1h6v-1h6v-1h5v-1h5v-1h5v-1h5v-1h10v1h13v1h2v1h1v1h2v1h1v1h1v1h2v1h3v1h35v-2h1v-1h2v-1h1v-1h2v-1h3v-1h3
		v-1h5v-1h7v-1h4v-1h8v-1h4v-1h8v-1h6v1h1v3h1v1h1v1h1v1h1v1h1v1h1v1h1v1h1v1h1v1h1v2h1v1h1v1h1v1h1v1h1v2h1v1h1v1h2v1h1v2h13v-2h-1
		v-1h-1v-1h-1v-2h-1v-1h-1v-1h-1v-1h-1v-1h-1v-2h-1v-1h-1v-1h-1v-1h-1v-1h-1v-1h-1v-1h-1v-1h-1v-1h-1v-2h-1v-1h-1v-1h-1v-2h-1v-7h1
		v-4h1v-2h1v-2h1v-2h1v-1h2v-1h1v-1h2v-1h4v-1h3v-1h1v-1h1v-1h1v-1h1v-1h2v-1h2v-1h1v-1h1v-1h1v-2h1v-1h1v-1h1v-1h1v-1h2v-1h1v-1h2
		v-1h3v-2h2v-1h2v-1h2v-1h1v-1h2v-1h1v-1h1v-1h2v-1h2v-1h2v-1h2v-1h2v-1h1v-1h2v-1h2v-1h2v-1h2v-1h3v-1h2v-1h2v-1h3v-1h2v-1h1v-1h2
		v-1h2v-1h3v-1h2v-1h2v-1h1v-4h-2v1h-2v1h-3v1h-2v1h-2v1h-2v1h-2v1h-2v1h-2v1h-2v1h-3v1h-2v1h-2v1h-2v1h-2v1h-2v1h-2v1h-1v1h-2v1h-2
		v1h-2v1h-1v1h-2v1h-2v1h-2v1h-1v1h-2v1h-1v1h-2v1h-2v1h-1v1h-2v1h-2v1h-1v1h-2v1h-2v1h-1v1h-2v1h-2v1h-1v1h-1v1h-2v1h-1v1h-1v1h-1
		v1h-1v1h-2v1h-1v1h-1v1h-1v1h-2v1h-1v1h-1v1h-1v1h-2v1h-1v1h-1v1h-1v1h-2v1h-1v1h-1v1h-2v1h-1v1h-1v1h-1v1h-1v1h-2v1h-1v1h-1v1h-2
		v1h-3v1h-6v1h-5v1h-5v1h-4v1h-5v1h-5v1h-4v1h-5v1h-5v1h-4v1h-3v-1h-2v-1h-1v-1h-1v1h-1v1h-2v1h-1v1h-1v1h-1v-1h-1v-1h-1v-1h-1v-1
		h-1v-1h-1v-1h-1v1h-1v1h-2v-1v-1h-1v-1h-1v-1h-1v-2h-1v-1h-1v-1h-1v-1h-1v-1h-1v-1h-1v-1h-1v-1h-1v-1h-1v-2h-1v-1h-1v-1h-1v-1h-1
		v-1h-1v-1h-1v-1h-1v-1h-1v-1h-1v-2h-1v-1h-1v-1h-1v-1h-1v-3h1v-1h1v-1h1v-1h2v-1h1v-2h-1v-1l0,0v-1h-2v1h-1v1h-2v1h-1v1h-1v1h-1v1
		h-2v-1h-1v-1h-1v-1h-1v-1h-2v-1h-3v-1h-7v1h-8v1h-7v-1h-2v-1h-1v-1h-2v-1h-1v-2h1v-1h1v-1h1v-2h-2v-1h-1v-1h-1v-1h-2v-1h-1v-1h-2
		v-1h-1v-1h-2v-1h-1c0-1,0-1,0-1h-1v-1h-2v-1h-1v-1h-2v-1h-1v-1h-1v-1h-2v-1h-1v-1h-2v-1h-1v-1h-2v-1h-1v-1h-1v-1h-2v-1h-1v-1h-2v-1
		h-1v-1h-1v-1h-2v-1h-1v-1h-2v-1h-1v-1h-2v-1h-2v-1h-2v-1h-1v-2h-2v-1h-1v-1h-2v-1h-1v-1h-1v-1h-2v-1h-1v-1h-2v-1h-1v-1h-1v-1h-2v-1
		h-1v-1h-2v-1h-1v-1h-2v-1h-1v-1h-1v-1h-2v-1h-1v-1h-2v-1h-1v-1h-1v-1h-2v-1h-1v-1h-2v-1h-1v-1h-2v-1h-1v-1h-1v-1h-1v-1h-2v2h-1v2
		h-1v1h-2v-1h-1v-1h-1v-1h-2v-1h-1v-1h-2v-1h-1v-1h-2v-1h-1v-1h-2v-4h1v-3h1v-3h1v-4h1v-3h1v-3h1v-4h1v-2h1v-2h1v-1h1v-1h2v-1h6v1h3
		v1h2v3h2v1h3v1h3v1h4v1h3v1h4v1h3v1h4v1h3v1h3v1h4v1h3v1h4v1h3v1h4v1h3v1h4v1h3v1h4v1h3v1h3v1h4v1h3v1h4v1h3v1h4v1h2v-1h5v1h2v3h4
		v1h4v1h4v1h5v1h6v1h7v1h11v1h14v-1h11v-1h8v-1h5v-1h4v-1h4v-1h4v-1h4v-1h4v-1h3v-1h4v-1h4v-1h4v-1h4v-1h4v-1h4v-1h4v-1h4v-1h4v-1h6
		v-1h4v-1h5v-1h2v-3h5v-1h3v-1h10v-1h10v-1h10v3h32v1H932.5z M900.5,283.5h2v82h-2V283.5z M900.5,374.5h2v137h-2V374.5z
		 M776.5,259.5h18v16h-18V259.5z M652.5,265.5h1v-2h1v-1h1v-1h1v-1h2v-1h5v16h-6v-1h-1v-1h-1v-1h-1v-1h-1v-2h-1V265.5z M864.5,396.5
		h-8v48h8v108h-1v2h-1v1h-1v1h-2v1h-2v1h-7v1h-5v-2h-3v1h-4v1h-5v1h-3v1h-3v1h-4v1h-5v1h-4v1h-4v1h-5v1h-4v1h-5v1h-4v1h-3v1h-5v1h-3
		v1h-5v1h-5v1h-4v1h-9v1h-6v1h-28v-1h-10v-1h-4v-1h-4v-1h-4v-1h-3v-1h-3v-1h-1v1h-1v2h-2v-1h-3v-1h-2v-3h-4v-1h-3v-1h-3v-1h-4v-1h-3
		v-1h-3v-1h-4v-1h-3v-1h-4v-1h-3v-1h-3v-1h-4v-1h-3v-1h-3v-1h-4v-1h-3v-1h-3v-1h-4v-1h-3v-1h-4v-1h-3v-1h-3v-1h-4v-1h-3v-1h-4v-1h-3
		v-1h-1v3h-2v-1h-4v-1h-3v-1h-3v-1h-4v-1h-3v-1h-3v-1h-4v-1h-3v-1h-4v-1h-3v-1h-3v-1h-5v-1h-2v-1h-3v-1h-4v-1h-3v-1h-2v-5h-1v-1h-3
		v-1h-4v-1h-3v-1h-3v-1h-4v-1h-3v-1h-3v-1h-4v-1h-3v-1h-3v-1h-4v-1h-3v-1h-3v-1h-4v-1h-3v-1h-3v-1h-4v-1h-3v-1h-1v5h-3v-1h-5v-1h-2
		v-2h-1v-57h-1v-1h-4v-1h-4v-1h-4v-1h-6v-3h1v-4h1v-3h1v-4h1v-3h1v-3h1v-4h1v-3h1v-4h1v-3h1v-4h1v-3h1v-4h1v-3h1v-3h1v-4h1v-3h1v-4
		h1v-2h1v-2h1v-2h1v-1h2v-1h1v-1h2v-1h388v1h1v2h1V396.5z M864.5,291.5h-8v65h8v7h-1v2h-1v1h-204v-1h-2v-1h-2v-1h-1v-3h-1v-2h4v-67
		h-4v-3h1v-3h1v-1h1v-1h1v-1h12v9h108v-9h18v6h53v-6h14v1h1v1h1v2h1V291.5z M864.5,271.5h-1v1h-1v1h-1v1h-1v1h-13v-16h12v1h2v1h1v1
		h1v1h1V271.5z"/>
	<polygon fill="#666666" stroke="#000000" stroke-miterlimit="10" points="408.5,358.5 409.5,358.5 409.5,359.5 413.5,359.5 
		413.5,360.5 416.5,360.5 416.5,361.5 420.5,361.5 420.5,362.5 424.5,362.5 424.5,363.5 427.5,363.5 427.5,364.5 431.5,364.5 
		431.5,365.5 434.5,365.5 434.5,366.5 438.5,366.5 438.5,367.5 441.5,367.5 441.5,368.5 445.5,368.5 445.5,369.5 449.5,369.5 
		449.5,370.5 452.5,370.5 452.5,371.5 456.5,371.5 456.5,372.5 457.5,372.5 457.5,374.5 456.5,374.5 456.5,377.5 455.5,377.5 
		455.5,380.5 454.5,380.5 454.5,384.5 453.5,384.5 453.5,388.5 452.5,388.5 452.5,390.5 450.5,390.5 450.5,389.5 447.5,389.5 
		447.5,388.5 444.5,388.5 444.5,387.5 440.5,387.5 440.5,386.5 437.5,386.5 437.5,385.5 433.5,385.5 433.5,384.5 430.5,384.5 
		430.5,383.5 427.5,383.5 427.5,382.5 423.5,382.5 423.5,381.5 420.5,381.5 420.5,380.5 416.5,380.5 416.5,379.5 413.5,379.5 
		413.5,378.5 409.5,378.5 409.5,377.5 407.5,377.5 407.5,379.5 406.5,379.5 406.5,380.5 408.5,380.5 408.5,381.5 412.5,381.5 
		412.5,382.5 415.5,382.5 415.5,383.5 419.5,383.5 419.5,384.5 422.5,384.5 422.5,385.5 426.5,385.5 426.5,386.5 429.5,386.5 
		429.5,387.5 433.5,387.5 433.5,388.5 437.5,388.5 437.5,389.5 440.5,389.5 440.5,390.5 444.5,390.5 444.5,391.5 447.5,391.5 
		447.5,392.5 451.5,392.5 451.5,395.5 450.5,395.5 450.5,398.5 449.5,398.5 449.5,402.5 448.5,402.5 448.5,405.5 447.5,405.5 
		447.5,409.5 446.5,409.5 446.5,411.5 444.5,411.5 444.5,410.5 441.5,410.5 441.5,409.5 438.5,409.5 438.5,408.5 434.5,408.5 
		434.5,407.5 431.5,407.5 431.5,406.5 427.5,406.5 427.5,405.5 424.5,405.5 424.5,404.5 421.5,404.5 421.5,403.5 417.5,403.5 
		417.5,402.5 414.5,402.5 414.5,401.5 410.5,401.5 410.5,400.5 407.5,400.5 407.5,399.5 403.5,399.5 403.5,398.5 401.5,398.5 
		401.5,400.5 402.5,400.5 402.5,401.5 405.5,401.5 405.5,402.5 409.5,402.5 409.5,403.5 412.5,403.5 412.5,404.5 415.5,404.5 
		415.5,405.5 419.5,405.5 419.5,406.5 422.5,406.5 422.5,407.5 425.5,407.5 425.5,408.5 428.5,408.5 428.5,409.5 432.5,409.5 
		432.5,410.5 435.5,410.5 435.5,411.5 438.5,411.5 438.5,412.5 442.5,412.5 442.5,413.5 445.5,413.5 445.5,416.5 444.5,416.5 
		444.5,420.5 443.5,420.5 443.5,423.5 442.5,423.5 442.5,427.5 441.5,427.5 441.5,430.5 440.5,430.5 440.5,431.5 438.5,431.5 
		438.5,430.5 435.5,430.5 435.5,429.5 432.5,429.5 432.5,428.5 428.5,428.5 428.5,427.5 425.5,427.5 425.5,426.5 421.5,426.5 
		421.5,425.5 418.5,425.5 418.5,424.5 415.5,424.5 415.5,423.5 412.5,423.5 412.5,422.5 409.5,422.5 409.5,421.5 404.5,421.5 
		404.5,420.5 401.5,420.5 401.5,419.5 396.5,419.5 396.5,422.5 400.5,422.5 400.5,423.5 403.5,423.5 403.5,424.5 407.5,424.5 
		407.5,425.5 410.5,425.5 410.5,426.5 414.5,426.5 414.5,427.5 417.5,427.5 417.5,428.5 421.5,428.5 421.5,429.5 425.5,429.5 
		425.5,430.5 428.5,430.5 428.5,431.5 432.5,431.5 432.5,432.5 435.5,432.5 435.5,433.5 439.5,433.5 439.5,437.5 438.5,437.5 
		438.5,441.5 437.5,441.5 437.5,445.5 436.5,445.5 436.5,448.5 435.5,448.5 435.5,452.5 433.5,452.5 433.5,451.5 429.5,451.5 
		429.5,450.5 426.5,450.5 426.5,449.5 422.5,449.5 422.5,448.5 419.5,448.5 419.5,447.5 415.5,447.5 415.5,446.5 412.5,446.5 
		412.5,445.5 409.5,445.5 409.5,444.5 405.5,444.5 405.5,443.5 402.5,443.5 402.5,442.5 398.5,442.5 398.5,441.5 395.5,441.5 
		395.5,440.5 391.5,440.5 391.5,439.5 389.5,439.5 389.5,442.5 390.5,442.5 390.5,443.5 394.5,443.5 394.5,444.5 397.5,444.5 
		397.5,445.5 401.5,445.5 401.5,446.5 404.5,446.5 404.5,447.5 408.5,447.5 408.5,448.5 411.5,448.5 411.5,449.5 415.5,449.5 
		415.5,450.5 419.5,450.5 419.5,451.5 422.5,451.5 422.5,452.5 426.5,452.5 426.5,453.5 429.5,453.5 429.5,454.5 433.5,454.5 
		433.5,459.5 432.5,459.5 432.5,462.5 431.5,462.5 431.5,466.5 430.5,466.5 430.5,469.5 429.5,469.5 429.5,473.5 427.5,473.5 
		427.5,472.5 423.5,472.5 423.5,471.5 420.5,471.5 420.5,470.5 417.5,470.5 417.5,469.5 413.5,469.5 413.5,468.5 410.5,468.5 
		410.5,467.5 406.5,467.5 406.5,466.5 403.5,466.5 403.5,465.5 400.5,465.5 400.5,464.5 396.5,464.5 396.5,463.5 393.5,463.5 
		393.5,462.5 389.5,462.5 389.5,461.5 386.5,461.5 386.5,460.5 383.5,460.5 383.5,459.5 379.5,459.5 379.5,453.5 380.5,453.5 
		380.5,450.5 381.5,450.5 381.5,447.5 382.5,447.5 382.5,443.5 383.5,443.5 383.5,440.5 384.5,440.5 384.5,437.5 385.5,437.5 
		385.5,433.5 386.5,433.5 386.5,430.5 387.5,430.5 387.5,427.5 388.5,427.5 388.5,423.5 389.5,423.5 389.5,420.5 390.5,420.5 
		390.5,416.5 391.5,416.5 391.5,413.5 392.5,413.5 392.5,410.5 393.5,410.5 393.5,406.5 394.5,406.5 394.5,403.5 395.5,403.5 
		395.5,400.5 396.5,400.5 396.5,396.5 397.5,396.5 397.5,393.5 398.5,393.5 398.5,389.5 399.5,389.5 399.5,386.5 400.5,386.5 
		400.5,383.5 401.5,383.5 401.5,379.5 402.5,379.5 402.5,376.5 403.5,376.5 403.5,373.5 404.5,373.5 404.5,369.5 405.5,369.5 
		405.5,366.5 406.5,366.5 406.5,363.5 407.5,363.5 407.5,359.5 408.5,359.5 	"/>
	<polygon fill="#666666" stroke="#000000" stroke-miterlimit="10" points="783,666.5 783,666.5 783.5,666.5 783.5,668.5 
		784.5,668.5 784.5,669.5 785.5,669.5 785.5,670.5 786.5,670.5 786.5,671.5 787.5,671.5 787.5,672.5 788.5,672.5 788.5,673.5 
		789.5,673.5 789.5,674.5 790.5,674.5 790.5,675.5 791.5,675.5 791.5,676.5 792.5,676.5 792.5,677.5 791.5,677.5 791.5,678.5 
		790.5,678.5 790.5,679.5 789.5,679.5 789.5,680.5 788.5,680.5 788.5,681.5 786.5,681.5 786.5,682.5 785.5,682.5 785.5,683.5 
		784.5,683.5 784.5,684.5 783.5,684.5 783.5,685.5 782.5,685.5 782.5,686.5 781.5,686.5 781.5,687.5 780.5,687.5 780.5,688.5 
		779.5,688.5 779.5,689.5 778.5,689.5 778.5,690.5 777.5,690.5 777.5,691.5 776.5,691.5 776.5,692.5 774.5,692.5 774.5,693.5 
		773.5,693.5 773.5,694.5 772.5,694.5 772.5,695.5 771.5,695.5 771.5,696.5 769.5,696.5 769.5,701.5 766.5,701.5 766.5,700.5 
		764.5,700.5 764.5,699.5 764.5,699.5 761.5,699.5 761.5,700.5 759.5,700.5 759.5,701.5 758.5,701.5 758.5,701.5 758.5,701.5 
		758.5,703.5 756.5,703.5 756.5,702.5 755.5,702.5 755.5,701.5 754.5,701.5 754.5,700.5 753.5,700.5 753.5,699.5 752.5,699.5 
		752.5,698.5 750.5,698.5 750.5,692.5 751.5,692.5 751.5,691.5 753.5,691.5 753.5,690.5 754.5,690.5 754.5,689.5 755.5,689.5 
		755.5,688.5 755.5,687.5 756.5,687.5 756.5,686.5 757.5,686.5 757.5,685.5 758.5,685.5 758.5,684.5 759.5,684.5 759.5,683.5 
		760.5,683.5 760.5,682.5 761.5,682.5 762.5,682.5 762.5,681.5 763.5,681.5 763.5,680.5 764.5,680.5 764.5,679.5 765.5,679.5 
		765.5,678.5 766.5,678.5 766.5,677.5 767.5,677.5 767.5,676.5 768.5,676.5 768.5,675.5 769.5,675.5 769.5,674.5 770.5,674.5 
		770.5,673.5 772.5,673.5 772.5,672.5 773.5,672.5 773.5,671.5 774.5,671.5 774.5,670.5 775.5,670.5 775.5,669.5 777.5,669.5 
		777.5,668.5 778.5,668.5 778.5,666.5 780.5,666.5 	"/>
	<polygon fill="#666666" stroke="#000000" stroke-miterlimit="10" points="846.5,471.5 848.5,471.5 848.5,471.5 851.5,471.5 
		851.5,473.5 850.5,473.5 850.5,476.5 849.5,476.5 849.5,478.5 848.5,478.5 848.5,480.5 850.5,480.5 850.5,481.5 852.5,481.5 
		852.5,594.5 851.5,594.5 851.5,601.5 850.5,601.5 850.5,603.5 849.5,603.5 849.5,606.5 848.5,606.5 848.5,608.5 847.5,608.5 
		847.5,609.5 846.5,609.5 846.5,610.5 844.5,610.5 844.5,611.5 843.5,611.5 843.5,612.5 842.5,612.5 842.5,613.5 840.5,613.5 
		840.5,614.5 839.5,614.5 839.5,615.5 838.5,615.5 838.5,616.5 836.5,616.5 836.5,617.5 835.5,617.5 835.5,618.5 834.5,618.5 
		834.5,619.5 832.5,619.5 832.5,620.5 831.5,620.5 831.5,621.5 830.5,621.5 830.5,622.5 828.5,622.5 828.5,623.5 827.5,623.5 
		827.5,624.5 826.5,624.5 826.5,625.5 824.5,625.5 824.5,626.5 823.5,626.5 823.5,627.5 821.5,627.5 821.5,628.5 820.5,628.5 
		820.5,629.5 819.5,629.5 819.5,630.5 817.5,630.5 817.5,631.5 816.5,631.5 816.5,632.5 815.5,632.5 815.5,633.5 813.5,633.5 
		813.5,634.5 812.5,634.5 812.5,635.5 811.5,635.5 811.5,636.5 809.5,636.5 809.5,637.5 808.5,637.5 808.5,638.5 807.5,638.5 
		807.5,639.5 805.5,639.5 805.5,640.5 804.5,640.5 804.5,641.5 803.5,641.5 803.5,642.5 802.5,642.5 802.5,643.5 801.5,643.5 
		801.5,644.5 799.5,644.5 799.5,645.5 798.5,645.5 798.5,646.5 797.5,646.5 797.5,647.5 796.5,647.5 796.5,649.5 795.5,649.5 
		795.5,650.5 794.5,650.5 794.5,651.5 793.5,651.5 793.5,653.5 792.5,653.5 792.5,654.5 791.5,654.5 791.5,655.5 790.5,655.5 
		790.5,657.5 789.5,657.5 789.5,658.5 788.5,658.5 788.5,660.5 787.5,660.5 787.5,662.5 786.5,662.5 786.5,663.5 785.5,663.5 
		785.5,665.5 783.5,665.5 783.5,669.5 785.5,669.5 785.5,670.5 785.5,670.5 785.5,671.5 787.5,671.5 787.5,667.5 788.5,667.5 
		788.5,666.5 789.5,666.5 789.5,664.5 790.5,664.5 790.5,663.5 791.5,663.5 791.5,661.5 792.5,661.5 792.5,660.5 793.5,660.5 
		793.5,658.5 794.5,658.5 794.5,657.5 795.5,657.5 795.5,655.5 796.5,655.5 796.5,654.5 797.5,654.5 797.5,652.5 798.5,652.5 
		798.5,650.5 799.5,650.5 799.5,649.5 800.5,649.5 800.5,648.5 801.5,648.5 801.5,647.5 802.5,647.5 802.5,646.5 804.5,646.5 
		804.5,645.5 805.5,645.5 805.5,644.5 806.5,644.5 806.5,643.5 807.5,643.5 807.5,642.5 809.5,642.5 809.5,641.5 810.5,641.5 
		810.5,640.5 811.5,640.5 811.5,639.5 813.5,639.5 813.5,638.5 814.5,638.5 814.5,637.5 816.5,637.5 816.5,636.5 817.5,636.5 
		817.5,635.5 818.5,635.5 818.5,634.5 820.5,634.5 820.5,633.5 821.5,633.5 821.5,632.5 823.5,632.5 823.5,631.5 824.5,631.5 
		824.5,630.5 825.5,630.5 825.5,629.5 827.5,629.5 827.5,628.5 828.5,628.5 828.5,627.5 829.5,627.5 829.5,626.5 831.5,626.5 
		831.5,625.5 832.5,625.5 832.5,624.5 834.5,624.5 834.5,623.5 835.5,623.5 835.5,622.5 836.5,622.5 836.5,621.5 838.5,621.5 
		838.5,620.5 839.5,620.5 839.5,619.5 841.5,619.5 841.5,618.5 842.5,618.5 842.5,617.5 843.5,617.5 843.5,616.5 845.5,616.5 
		845.5,615.5 846.5,615.5 846.5,614.5 847.5,614.5 847.5,613.5 848.5,613.5 848.5,612.5 849.5,612.5 849.5,611.5 850.5,611.5 
		850.5,609.5 851.5,609.5 851.5,607.5 852.5,607.5 852.5,605.5 853.5,605.5 853.5,603.5 854.5,603.5 854.5,598.5 855.5,598.5 
		855.5,467.5 854.5,467.5 854.5,466.5 850.5,466.5 850.5,465.5 848.5,465.5 848.5,467.5 847.5,467.5 847.5,468.5 846.5,468.5 	"/>
	<g>
		<polygon fill="#666666" points="832,490 832,489 828,489 828,488 825,488 825,487 821,487 821,486 817,486 817,485 814,485 
			814,484 810,484 810,483 807,483 807,482 803,482 803,481 799,481 799,480 798,480 798,478 799,478 799,476 796,476 796,475 
			793,475 793,473 794,473 794,469 795,469 795,465 796,465 796,462 797,462 797,458 798,458 798,455 799,455 799,451 800,451 
			800,447 801,447 801,446 799,446 799,443 800,443 800,440 802,440 802,441 806,441 806,442 810,442 810,443 814,443 814,444 
			817,444 817,442 819,442 819,443 823,443 823,444 826,444 826,445 830,445 830,446 833,446 833,447 837,447 837,448 840,448 
			840,449 844,449 844,450 847,450 847,451 851,451 851,452 855,452 855,456 854,456 854,458 853,458 853,459 852,459 852,461 
			851,461 851,463 850,463 850,465 849,465 849,467 848,467 848,469 847,469 847,471 846,471 846,472 845,472 845,474 844,474 
			844,476 843,476 843,478 842,478 842,480 840,480 840,479 838,479 838,478 837,478 837,481 836,481 836,485 835,485 835,489 
			834,489 834,490 		"/>
		<g>
			<path d="M801,441v1h4v1h4v1h4v1h4v-2h1v1h4v1h3v1h4v1h3v1h4v1h3v1h4v1h3v1h4v1h4v3h-1v2h-1v1h-1v2h-1v2h-1v2h-1v2h-1v2h-1v2h-1v1
				h-1v2h-1v2h-1v2h-1v2h-1v-1h-2v-1h-2v3h-1v4h-1v4h-1v1h-1v-1h-4v-1h-3v-1h-4v-1h-4v-1h-3v-1h-4v-1h-3v-1h-4v-1h-4v-1h-1v-1h1v-3
				h-3v-1h-3v-1h1v-4h1v-4h1v-3h1v-4h1v-3h1v-4h1v-4h1v-2h-2v-2h1v-3H801 M802,440h-0.5h-1H799v0.5v2.5h-1v0.5v2v1.5h1v0.5v3.5h-1
				v0.5v3.5h-1v0.5v2.5h-1v0.5v3.5h-1v0.5v2.5h-1v0.5v3.5h-1v0.5v3.5h-1v0.5v1v1.5h1.5h1.5v1h1.5h1.5v1h-1v0.5v1v1.5h1v1h1.5h2.5v1
				h1.5h2.5v1h1.5h1.5v1h1.5h2.5v1h1.5h1.5v1h1.5h2.5v1h1.5h2.5v1h1.5h1.5v1h1.5h2.5v1h1.5h1h0.5v-1h1v-1.5V486h1v-1.5V482h1v-1.5
				v-2v1.5h1.5h0.5v1h1.5h1h0.5v-1.5V479h1v-1.5V477h1v-1.5V475h1v-1.5V473h1v-1h1v-1.5V470h1v-1.5V468h1v-1.5V466h1v-1.5V464h1
				v-1.5V462h1v-1.5V460h1v-1h1v-1.5V457h1v-1.5v-3V452h-0.5H851v-1h-0.5H847v-1h-0.5H844v-1h-0.5H840v-1h-0.5H837v-1h-0.5H833v-1
				h-0.5H830v-1h-0.5H826v-1h-0.5H823v-1h-0.5H819v-1h-0.5h-1H816v0.5v1.5h-2v-1h-0.5H810v-1h-0.5H806v-1h-0.5H802V440L802,440z"/>
		</g>
	</g>
</g>
<g id="Layer_2">
	<g>
		<polygon fill="#0000FF" points="660,364 660,291 728,291 728,346 727,346 727,360 720,360 720,364 		"/>
		<path d="M727,292v54h-1v14h-7v4h-59v-72H727 M728,291h-0.5h-67H659v0.5v72v1.5h1.5h59h0.5v-1.5V361h6.5h0.5v-1.5V347h1v-1.5v-54
			V291L728,291z"/>
	</g>
	<g>
		<polygon fill="#F7931E" points="731,343 731,320 744,320 744,333 752,333 752,343 		"/>
		<path d="M743,321v13h8v9h-20v-22H743 M744,320h-0.5h-12H730v0.5v22v1.5h1.5h20h0.5v-1.5v-9V333h-0.5H744v-12.5V320L744,320z"/>
	</g>
	<g>
		<g>
			<polygon fill="#C1272D" points="627,347 627,328 629,328 629,323 638,323 638,347 			"/>
			<path d="M637,324v23h-10v-18h2v-5H637 M638,323h-0.5h-8H628v0.5v4.5h-0.5H626v0.5v18v1.5h1.5h10h0.5v-1.5v-23V323L638,323z"/>
		</g>
		<g>
			<rect x="630" y="347" fill="#C1272D" width="6" height="3"/>
			<path d="M635,348v2h-5v-2H635 M636,347h-0.5h-5H629v0.5v2v1.5h1.5h5h0.5v-1.5v-2V347L636,347z"/>
		</g>
		<g>
			<rect x="628" y="350" fill="#C1272D" width="10" height="10"/>
			<path d="M637,351v9h-9v-9H637 M638,350h-0.5h-9H627v0.5v9v1.5h1.5h9h0.5v-1.5v-9V350L638,350z"/>
		</g>
		<g>
			<rect x="616" y="350" fill="#C1272D" width="7" height="11"/>
			<path d="M622,351v10h-6v-10H622 M623,350h-0.5h-6H615v0.5v10v1.5h1.5h6h0.5v-1.5v-10V350L623,350z"/>
		</g>
	</g>
	<g>
		<g>
			<polygon fill="#00FF00" points="780,218 780,188 810,188 810,203 817,203 817,218 			"/>
			<path d="M809,189v15h7v14h-36v-29H809 M810,188h-0.5h-29H779v0.5v29v1.5h1.5h36h0.5v-1.5v-14V203h-0.5H810v-14.5V188L810,188z"/>
		</g>
		<g>
			<rect x="780" y="223" fill="#00FF00" width="37" height="26"/>
			<path d="M816,224v25h-36v-25H816 M817,223h-0.5h-36H779v0.5v25v1.5h1.5h36h0.5v-1.5v-25V223L817,223z"/>
		</g>
		<g>
			<rect x="780" y="249" fill="#00FF00" width="37" height="3"/>
			<path d="M816,250v2h-36v-2H816 M817,249h-0.5h-36H779v0.5v2v1.5h1.5h36h0.5v-1.5v-2V249L817,249z"/>
		</g>
	</g>
	<g>
		<polygon fill="#93278F" points="794,364 794,346 795,346 795,343 794,343 794,331 795,331 795,328 794,328 794,313 795,313 
			795,310 794,310 794,298 795,298 795,295 794,295 794,291 839,291 839,364 		"/>
		<path d="M838,292v72h-44v-17h1v-4h-1v-11h1v-4h-1v-14h1v-4h-1v-11h1v-4h-1v-3H838 M839,291h-0.5h-44H793v0.5v3v1.5h1v2h-1v0.5v11
			v1.5h1v2h-1v0.5v14v1.5h1v2h-1v0.5v11v1.5h1v2h-1v0.5v17v1.5h1.5h44h0.5v-1.5v-72V291L839,291z"/>
	</g>
	<g>
		<polygon fill="#FFFF00" points="497,403 497,393 501,393 501,391 497,391 497,377 544,377 544,380 553,380 553,384 552,384 
			552,392 551,392 551,395 548,395 548,394 544,394 544,393 542,393 542,392 517,392 517,400 501,400 501,403 		"/>
		<path d="M543,378v3h9v3h-1v8h-1v3h-2v-1h-4v-1h-2v-1h-26v8h-16v3h-3v-9h4v-3h-4v-13H543 M544,377h-0.5h-46H496v0.5v13v1.5h1.5h2.5
			v1h-2.5H496v0.5v9v1.5h1.5h3h0.5v-1.5V401h15.5h0.5v-1.5V393h24v1h1.5h0.5v1h1.5h2.5v1h1.5h2h0.5v-1.5V393h1v-1.5V385h1v-1.5v-3
			V380h-0.5H544v-2.5V377L544,377z"/>
	</g>
	<g>
		<g>
			<polygon fill="#1B1464" points="704,249 704,241 705,241 705,230 749,230 749,249 			"/>
			<path d="M748,231v18h-44v-7h1v-11H748 M749,230h-0.5h-43H704v0.5V241h-1v0.5v7v1.5h1.5h44h0.5v-1.5v-18V230L749,230z"/>
		</g>
		<g>
			<rect x="704" y="249" fill="#1B1464" width="45" height="3"/>
			<path d="M748,250v2h-44v-2H748 M749,249h-0.5h-44H703v0.5v2v1.5h1.5h44h0.5v-1.5v-2V249L749,249z"/>
		</g>
		<g>
			<polygon fill="#1B1464" points="713,230 713,225 716,225 716,224 719,224 719,223 722,223 722,222 724,222 724,221 727,221 
				727,220 730,220 730,219 732,219 732,218 734,218 734,217 749,217 749,230 			"/>
			<path d="M748,218v12h-35v-4h3v-1h3v-1h3v-1h2v-1h3v-1h3v-1h2v-1h2v-1H748 M749,217h-0.5h-14H733v1h-0.5H731v1h-0.5H729v1h-1.5
				H726v1h-1.5H723v1h-0.5H721v1h-1.5H718v1h-1.5H715v1h-1.5H712v0.5v4v1.5h1.5h35h0.5v-1.5v-12V217L749,217z"/>
		</g>
		<g>
			<polygon fill="#1B1464" points="738,217 738,215 739,215 739,214 741,214 741,213 742,213 742,212 743,212 743,211 745,211 
				745,210 746,210 746,209 749,209 749,217 			"/>
			<path d="M748,210v7h-10v-1h1v-1h2v-1h1v-1h1v-1h2v-1h1v-1H748 M749,209h-0.5h-2H745v1h-1v1h-0.5H742v1h-1v1h-1v1h-0.5H738v1h-1
				v0.5v1v1.5h1.5h10h0.5v-1.5v-7V209L749,209z"/>
		</g>
	</g>
	<g>
		<g>
			<rect x="822" y="225" fill="#C1272D" width="11" height="13"/>
			<path d="M832,226v12h-10v-12H832 M833,225h-0.5h-10H821v0.5v12v1.5h1.5h10h0.5v-1.5v-12V225L833,225z"/>
		</g>
		<g>
			<polygon fill="#C1272D" points="840,247 840,246 836,246 836,245 832,245 832,244 828,244 828,243 826,243 826,240 827,240 
				827,238 833,238 833,229 837,229 837,230 841,230 841,231 845,231 845,232 846,232 846,234 845,234 845,238 844,238 844,242 
				843,242 843,246 842,246 842,247 			"/>
			<path d="M836,230v1h4v1h4v1h1v1h-1v4h-1v4h-1v4h-1v1h-1v-1h-4v-1h-4v-1h-4v-1h-2v-2h1v-2h6v-9H836 M837,229h-0.5h-3H832v0.5v8.5
				h-4.5H826v0.5v1.5h-1v0.5v2v1.5h1.5h0.5v1h1.5h2.5v1h1.5h2.5v1h1.5h2.5v1h1.5h1h0.5v-1h1v-1.5V243h1v-1.5V239h1v-1.5V235h1v-1.5
				v-1V232h-1v-1h-0.5H841v-1h-0.5H837V229L837,229z"/>
		</g>
		<g>
			<polygon fill="#C1272D" points="842,252 842,251 838,251 838,250 834,250 834,249 831,249 831,248 827,248 827,247 823,247 
				823,246 822,246 822,244 823,244 823,238 827,238 827,243 829,243 829,244 833,244 833,245 837,245 837,246 841,246 841,247 
				842,247 842,245 843,245 843,241 844,241 844,237 845,237 845,234 846,234 846,232 844,232 844,231 840,231 840,230 836,230 
				836,228 842,228 842,229 846,229 846,230 849,230 849,231 850,231 850,233 849,233 849,237 848,237 848,240 847,240 847,244 
				846,244 846,247 845,247 845,251 844,251 844,252 			"/>
			<path d="M841,229v1h4v1h3v1h1v1h-1v4h-1v3h-1v4h-1v3h-1v4h-1v1h-1v-1h-4v-1h-4v-1h-3v-1h-4v-1h-4v-1h-1v-1h1v-4.5V239h2.5h0.5
				v0.5v1v3.5h2v1h4v1h4v1h4v1h2v-2h1v-4h1v-4h1v-3h1v-3h-2v-1h-4v-1h-4v-1H841 M842,228h-0.5h-5H835v0.5v1v1.5h1.5h2.5v1h1.5h2.5v1
				h1.5h0.5v1h-1v0.5v2.5h-1v0.5v3.5h-1v0.5v3.5h-1v1h-0.5H837v-1h-0.5H833v-1h-0.5H829v-1h-0.5H827v-2.5v-1v-1V238h-0.5h-1h-2H822
				v0.5v2v3.5h-1v0.5v1v1.5h1v1h1.5h2.5v1h1.5h2.5v1h1.5h1.5v1h1.5h2.5v1h1.5h2.5v1h1.5h1h0.5v-1h1v-1.5V248h1v-1.5V245h1v-1.5V241
				h1v-1.5V238h1v-1.5V234h1v-1.5v-1V231h-1v-1h-0.5H846v-1h-0.5H842V228L842,228z"/>
		</g>
	</g>
	<g>
		<g>
			<rect x="468" y="409" fill="#006837" width="29" height="30"/>
			<path d="M496,410v29h-28v-29H496 M497,409h-0.5h-28H467v0.5v29v1.5h1.5h28h0.5v-1.5v-29V409L497,409z"/>
		</g>
		<g>
			<polygon fill="#006837" points="505,432 505,430 501,430 501,429 498,429 498,428 497,428 497,414 499,414 499,415 502,415 
				502,416 506,416 506,417 509,417 509,418 512,418 512,419 513,419 513,423 512,423 513,423 513,425 512,425 512,429 509,429 
				509,432 			"/>
			<path d="M498,415v1h3v1h4v1h3v1h3v1h1v3h-1v1h1v1h-1v4h-3v3h-3v-2h-4v-1h-3v-1h-1v-13H498 M499,414h-0.5h-1H496v0.5v13v1.5h1v1
				h1.5h1.5v1h1.5h2.5v0.5v1.5h1.5h3h0.5v-1.5V430h2.5h0.5v-1.5V426h1v-1.5v-1v-1v-3V419h-1v-1h-0.5H509v-1h-0.5H506v-1h-0.5H502v-1
				h-0.5H499V414L499,414z"/>
		</g>
		<g>
			<polygon fill="#006837" points="500,452 500,451 498,451 498,448 499,448 499,443 500,443 500,439 501,439 501,437 499,437 
				499,436 497,436 497,428 499,428 499,429 502,429 502,430 506,430 506,431 507,431 507,434 506,434 506,438 505,438 505,442 
				504,442 504,446 503,446 503,450 502,450 502,452 			"/>
			<path d="M498,429v1h3v1h4v1h1v2h-1v4h-1v4h-1v4h-1v4h-1v2h-1v-1h-2v-2h1v-5h1v-4h1v-3h-2v-1h-2v-7H498 M499,428h-0.5h-1H496v0.5
				v7v1.5h1.5h0.5v1h1.5h0.5v1h-1v0.5v3.5h-1v0.5v4.5h-1v0.5v2v1.5h1.5h0.5v1h1.5h1h0.5v-1.5V451h1v-1.5V447h1v-1.5V443h1v-1.5V439
				h1v-1.5V435h1v-1.5v-2V431h-1v-1h-0.5H502v-1h-0.5H499V428L499,428z"/>
		</g>
		<g>
			<polygon fill="#006837" points="526,479 526,478 519,478 519,477 512,477 512,476 505,476 505,475 498,475 498,474 491,474 
				491,473 488,473 488,470 489,470 489,466 490,466 490,462 491,462 491,458 492,458 492,454 493,454 493,451 494,451 494,450 
				500,450 500,452 502,452 502,449 503,449 503,445 504,445 504,441 505,441 505,437 506,437 506,433 507,433 507,432 509,432 
				509,429 511,429 511,428 512,428 512,423 518,423 518,425 521,425 521,426 525,426 525,427 526,427 526,429 525,429 525,433 
				524,433 524,436 523,436 523,440 522,440 522,443 521,443 521,447 520,447 520,450 519,450 519,454 518,454 518,455 519,455 
				519,458 518,458 518,460 522,460 522,461 530,461 530,462 533,462 533,465 532,465 532,471 531,471 531,477 530,477 530,479 			
				"/>
			<path d="M517,424v2h3v1h4v1h1v1h-1v4h-1v3h-1v4h-1v3h-1v4h-1v3h-1v4h-1v2h1v2h-1v3h4v1h8v1h3v2h-1v6h-1v6h-1v2h-3v-1h-7v-1h-7v-1
				h-7v-1h-7v-1h-7v-1h-3v-2h1v-4h1v-4h1v-4h1v-4h1v-3h1v-1h2.5h2.5v2h3v-3h1v-4h1v-4h1v-4h1v-4h1v-1h2v-1.5V430h2v-1h1v-5H517
				 M518,423h-0.5h-5H511v0.5v4.5h-1v1h-0.5H508v0.5v2.5h-0.5H506v1h-1v0.5v3.5h-1v0.5v3.5h-1v0.5v3.5h-1v0.5v3.5h-1v0.5v2.5h-1
				v-1.5V450h-0.5h-3h-2H493v1h-1v0.5v2.5h-1v0.5v3.5h-1v0.5v3.5h-1v0.5v3.5h-1v0.5v3.5h-1v0.5v2v1.5h1.5h1.5v1h1.5h5.5v1h1.5h5.5v1
				h1.5h5.5v1h1.5h5.5v1h1.5h5.5v1h1.5h3h0.5v-1.5V478h1v-1.5V472h1v-1.5V466h1v-1.5v-2V462h-0.5H530v-1h-0.5H522v-1h-0.5H518v-1h1
				v-1.5v-2V455h-0.5h0.5v-1.5V451h1v-1.5V448h1v-1.5V444h1v-1.5V441h1v-1.5V437h1v-1.5V434h1v-1.5V430h1v-1.5v-1V427h-1v-1h-0.5
				H521v-1h-0.5H518v-1.5V423L518,423z"/>
		</g>
	</g>
	<g>
		<g>
			<polygon fill="#2E3192" points="542,470 542,469 537,469 537,468 532,468 532,464 533,464 533,462 535,462 535,463 541,463 
				541,464 547,464 547,469 546,469 546,470 			"/>
			<path d="M534,463v1h6v1h6v4h-1v1h-3v-1h-5v-1h-5v-3h1v-2H534 M535,462h-0.5h-1H532v0.5v1.5h-1v0.5v3v1.5h1.5h3.5v1h1.5h3.5v1h1.5
				h3h0.5v-1h1v-1.5v-4V464h-0.5H541v-1h-0.5H535V462L535,462z"/>
		</g>
		<g>
			<polygon fill="#2E3192" points="772,553 772,552 768,552 768,551 765,551 765,550 761,550 761,549 758,549 758,548 754,548 
				754,547 753,547 753,545 754,545 754,541 755,541 755,538 756,538 756,535 757,535 757,531 758,531 758,528 759,528 759,525 
				760,525 760,521 761,521 761,520 759,520 759,519 755,519 755,518 751,518 751,517 748,517 748,516 744,516 744,515 740,515 
				740,514 739,514 739,516 738,516 738,520 737,520 737,524 736,524 736,528 735,528 735,532 734,532 734,536 733,536 733,540 
				732,540 732,541 729,541 729,540 725,540 725,539 721,539 721,538 717,538 717,537 713,537 713,536 711,536 711,534 712,534 
				712,530 713,530 713,526 714,526 714,523 715,523 715,519 716,519 716,515 717,515 717,514 715,514 715,513 711,513 711,512 
				708,512 708,511 704,511 704,510 701,510 701,509 697,509 697,508 696,508 696,513 695,513 695,520 694,520 694,528 693,528 
				693,531 689,531 689,530 681,530 681,529 674,529 674,528 671,528 671,524 672,524 672,517 673,517 673,510 674,510 674,503 
				675,503 675,500 671,500 671,499 663,499 663,498 656,498 656,497 653,497 653,501 652,501 652,508 651,508 651,515 650,515 
				650,522 649,522 649,525 645,525 645,524 638,524 638,523 631,523 631,522 628,522 628,518 629,518 629,511 630,511 630,504 
				631,504 631,497 632,497 632,494 628,494 628,493 621,493 621,492 613,492 613,491 610,491 610,495 609,495 609,502 608,502 
				608,509 607,509 607,516 606,516 606,519 602,519 602,518 595,518 595,517 587,517 587,516 584,516 584,512 585,512 585,505 
				586,505 586,498 587,498 587,491 588,491 588,488 584,488 584,487 577,487 577,486 569,486 569,485 566,485 566,489 565,489 
				565,496 564,496 564,503 563,503 563,510 562,510 562,513 558,513 558,512 551,512 551,511 544,511 544,510 541,510 541,506 
				542,506 542,498 543,498 543,490 544,490 544,483 545,483 545,475 546,475 546,468 547,468 547,464 551,464 551,465 558,465 
				558,466 565,466 565,467 572,467 572,468 579,468 579,469 585,469 585,470 592,470 592,471 599,471 599,472 606,472 606,473 
				613,473 613,474 620,474 620,475 627,475 627,476 634,476 634,477 641,477 641,478 648,478 648,479 655,479 655,480 661,480 
				661,481 668,481 668,482 675,482 675,483 682,483 682,484 689,484 689,485 696,485 696,486 703,486 703,482 702,482 702,479 
				701,479 701,475 700,475 700,472 699,472 699,469 698,469 698,463 700,463 700,467 701,467 701,470 702,470 702,473 703,473 
				703,477 704,477 704,478 709,478 709,477 710,477 710,473 711,473 711,470 712,470 712,467 713,467 713,463 714,463 714,462 
				716,462 716,466 715,466 715,470 714,470 714,474 713,474 713,478 712,478 712,480 714,480 714,481 716,481 716,482 718,482 
				718,481 719,481 719,480 720,480 720,479 721,479 721,478 722,478 722,477 723,477 723,475 724,475 724,474 725,474 725,473 
				726,473 726,472 727,472 727,471 728,471 728,470 730,470 730,471 731,471 731,473 730,473 730,474 729,474 729,475 728,475 
				728,476 727,476 727,477 726,477 726,478 724,478 724,479 723,479 723,480 722,480 722,481 721,481 721,482 720,482 720,487 
				721,487 721,489 723,489 723,492 725,492 725,493 729,493 729,494 733,494 733,495 737,495 737,496 741,496 741,497 745,497 
				745,498 749,498 749,499 752,499 752,500 756,500 756,501 760,501 760,502 764,502 764,503 768,503 768,504 772,504 772,505 
				776,505 776,506 779,506 779,509 778,509 778,511 776.891,511 776.141,514 779,514 779,515 783,515 783,516 784,516 784,518 
				783,518 783,522 782,522 782,526 781,526 781,529 780,529 780,533 779,533 779,537 778,537 778,541 777,541 777,544 776,544 
				776,548 775,548 775,552 774,552 774,553 			"/>
			<path d="M715,463v3h-1v4h-1v4h-1v4h-1v3h2v1h2v1h3v-1h1v-1h1v-1h1v-1h1v-1h1v-2h1v-1h1v-1h1v-1h1v-1h1v-1h1v1h1v1h-1v1h-1v1h-1v1
				h-1v1h-1v1h-2v1h-1v1h-1v1h-1v1h-1v6h1v2h2v3h2v1h4v1h4v1h4v1h4v1h4v1h4v1h3v1h4v1h4v1h4v1h4v1h4v1h4v1h3v2h-1v2h-0.5l-1,4h2.5v1
				h4v1h1v1h-1v4h-1v4h-1v3h-1v4h-1v4h-1v4h-1v3h-1v4h-1v4h-1v1h-1v-1h-4v-1h-3v-1h-4v-1h-3v-1h-4v-1h-1v-1h1v-4h1v-3h1v-3h1v-4h1
				v-3h1v-3h1v-4h1v-2h-2v-1h-4v-1h-4v-1h-3v-1h-4v-1h-4v-1h-2v2h-1v4h-1v4h-1v4h-1v4h-1v4h-1v4h-1v1h-2v-1h-4v-1h-4v-1h-4v-1h-4v-1
				h-2v-1h1v-4h1v-4h1v-3h1v-4h1v-4h1v-2h-2v-1h-4v-1h-3v-1h-4v-1h-3v-1h-4v-1h-2v5h-1v7h-1v8h-1v3h-3v-1h-8v-1h-7v-1h-3v-3h1v-7h1
				v-7h1v-7h1v-4h-4v-1h-8v-1h-7v-1h-4v4h-1v7h-1v7h-1v7h-1v3h-3v-1h-7v-1h-7v-1h-3v-3h1v-7h1v-7h1v-7h1v-4h-4v-1h-7v-1h-8v-1h-4v4
				h-1v7h-1v7h-1v7h-1v3h-3v-1h-7v-1h-8v-1h-3v-3h1v-7h1v-7h1v-7h1v-4h-4v-1h-7v-1h-8v-1h-4v4h-1v7h-1v7h-1v7h-1v3h-3v-1h-7v-1h-7
				v-1h-3v-3h1v-8h1v-8h1v-7h1v-8h1v-7h1v-4h3v1h7v1h7v1h7v1h7v1h6v1h7v1h7v1h7v1h7v1h7v1h7v1h7v1h7v1h7v1h7v1h6v1h7v1h7v1h7v1h7v1
				h7v1h6.5h1.5v-1.5V482h-1v-3h-1v-4h-1v-3h-1v-3h-1v-5h1v4h1v3h1v3h1v4h1v1h6v-1h1v-4h1v-3h1v-3h1v-4h1v-1H715 M716,462h-0.5h-1
				H713v1h-1v0.5v3.5h-1v0.5v2.5h-1v0.5v2.5h-1v0.5v3.5h-1v1h-4v-1h-1v-3.5V473h-1v-2.5V470h-1v-2.5V467h-1v-3.5V463h-0.5h-1H697
				v0.5v5v1.5h1v1.5v1.5h1v1.5v1.5h1v2.5v1.5h1v1.5v1.5h1v3h-0.5H696v-1h-0.5H689v-1h-0.5H682v-1h-0.5H675v-1h-0.5H668v-1h-0.5H661
				v-1h-0.5H655v-1h-0.5H648v-1h-0.5H641v-1h-0.5H634v-1h-0.5H627v-1h-0.5H620v-1h-0.5H613v-1h-0.5H606v-1h-0.5H599v-1h-0.5H592v-1
				h-0.5H585v-1h-0.5H579v-1h-0.5H572v-1h-0.5H565v-1h-0.5H558v-1h-0.5H551v-1h-0.5h-3H546v0.5v3.5h-1v0.5v6.5h-1v0.5v7.5h-1v0.5
				v6.5h-1v0.5v7.5h-1v0.5v7.5h-1v0.5v3v1.5h1.5h1.5v1h1.5h5.5v1h1.5h5.5v1h1.5h3h0.5v-1.5V511h1v-1.5V504h1v-1.5V497h1v-1.5V490h1
				v-1.5V486h2v1h1.5h6.5v1h1.5h5.5v1h1.5h2.5v2h-1v0.5v6.5h-1v0.5v6.5h-1v0.5v6.5h-1v0.5v3v1.5h1.5h1.5v1h1.5h6.5v1h1.5h5.5v1h1.5
				h3h0.5v-1.5V517h1v-1.5V510h1v-1.5V503h1v-1.5V496h1v-1.5V492h2v1h1.5h6.5v1h1.5h5.5v1h1.5h2.5v2h-1v0.5v6.5h-1v0.5v6.5h-1v0.5
				v6.5h-1v0.5v3v1.5h1.5h1.5v1h1.5h5.5v1h1.5h5.5v1h1.5h3h0.5v-1.5V523h1v-1.5V516h1v-1.5V509h1v-1.5V502h1v-1.5V498h2v1h1.5h5.5v1
				h1.5h6.5v1h1.5h2.5v2h-1v0.5v6.5h-1v0.5v6.5h-1v0.5v6.5h-1v0.5v3v1.5h1.5h1.5v1h1.5h5.5v1h1.5h6.5v1h1.5h3h0.5v-1.5V529h1v-1.5
				V521h1v-1.5V514h1v-1.5v-4v1.5h1.5h2.5v1h1.5h1.5v1h1.5h2.5v1h1.5h1.5v1h1.5h2.5v1h1v0.5v3.5h-1v0.5v3.5h-1v0.5v2.5h-1v0.5v3.5
				h-1v0.5v3.5h-1v0.5v1v1.5h1.5h0.5v1h1.5h2.5v1h1.5h2.5v1h1.5h2.5v1h1.5h2.5v1h1.5h2h0.5v-1h1v-1.5V537h1v-1.5V533h1v-1.5V529h1
				v-1.5V525h1v-1.5V521h1v-1.5V517h1v-1.5v-1v1.5h1.5h2.5v1h1.5h2.5v1h1.5h1.5v1h1.5h2.5v1h1.5h2.5v1h1v0.5v3.5h-1v0.5v2.5h-1v0.5
				v2.5h-1v0.5v3.5h-1v0.5v2.5h-1v0.5v2.5h-1v0.5v3.5h-1v0.5v1v1.5h1v1h1.5h2.5v1h1.5h1.5v1h1.5h2.5v1h1.5h1.5v1h1.5h2.5v1h1.5h1
				h0.5v-1h1v-1.5V549h1v-1.5V545h1v-1.5V542h1v-1.5V538h1v-1.5V534h1v-1.5V530h1v-1.5V527h1v-1.5V523h1v-1.5V519h1v-1.5v-1V516h-1
				v-1h-0.5H779v-1h-0.5h-1.719l0.5-2h0.219h0.5v-1.5V510h1v-1.5v-2V506h-0.5H776v-1h-0.5H772v-1h-0.5H768v-1h-0.5H764v-1h-0.5H760
				v-1h-0.5H756v-1h-0.5H752v-1h-0.5H749v-1h-0.5H745v-1h-0.5H741v-1h-0.5H737v-1h-0.5H733v-1h-0.5H729v-1h-0.5H725v-1h-0.5H723
				v-2.5V489h-0.5H721v-1.5V487h-1v-4h1v-1h1v-1h1v-1h1v-1h1.5h0.5v-1h1v-1h1v-1h1v-1h1v-1h1v-1.5v-1V471h-1v-1h-0.5h-1H727v1h-1v1
				h-1v1h-1v1h-1v1h-1v0.5v1.5h-1v1h-1v1h-1v1h-1v1h-1v1h-1v-1h-0.5H714v-1h-0.5H712v-1h1v-1.5V475h1v-1.5V471h1v-1.5V467h1v-1.5v-3
				V462L716,462z"/>
		</g>
		<g>
			<polygon fill="#2E3192" points="704,478 704,477 703,477 703,474 702,474 702,471 701,471 701,468 700,468 700,464 699,464 
				699,460 698,460 698,457 715,457 715,460 714,460 714,464 713,464 713,468 712,468 712,471 711,471 711,474 710,474 710,477 
				709,477 709,478 			"/>
			<path d="M714,458v2h-1v4h-1v4h-1v3h-1v3h-1v3h-1v1h-4v-1h-1v-3h-1v-3h-1v-3h-1v-4h-1v-4h-1v-2H714 M715,457h-0.5h-16H697v0.5v2
				v1.5h1v2.5v1.5h1v2.5v1.5h1v1.5v1.5h1v1.5v1.5h1v1.5v1.5h1v1h1.5h4h0.5v-1h1v-1.5V475h1v-1.5V472h1v-1.5V469h1v-1.5V465h1v-1.5
				V461h1v-1.5v-2V457L715,457z"/>
		</g>
		<g>
			<polygon fill="#2E3192" points="716,482 716,481 714,481 714,480 712,480 712,477 713,477 713,473 714,473 714,468.559 
				715,468.434 715,465 716,465 716,461 717,461 717,458 721,458 721,459 723,459 723,460 724,460 724,461 726,461 726,462 728,462 
				728,463 729,463 729,464 731,464 731,465 733,465 733,467 732,467 732,468 731,468 731,469 730,469 730,470 729,470 729,471 
				728,471 728,472 727,472 727,473 726,473 726,474 725,474 725,475 724,475 724,476 723,476 723,478 722,478 722,479 720,479 
				720,480 719,480 719,481 718,481 718,482 			"/>
			<path d="M720,459v1h2v1h1v1h2v1h2v1h1v1h2v1h2v1h-1v1h-1v1h-1v1h-1v1h-1v1h-1v1h-1v1h-1v1h-1v1h-1v2h-1v1h-2v1h-1v1h-1v1h-1v-1
				h-2v-1h-2v-2h1v-4h1v-5l1-0.125V466h1v-4h1v-3H720 M721,458h-0.5h-3H716v0.5v2.5h-1v0.5v3.5h-1v0.5v2.492l-0.124,0.016
				L713,468.117V469v4h-1v0.5v3.5h-1v0.5v2v1.5h1.5h0.5v1h1.5h0.5v1h1.5h1h0.5v-1h1v-1h1v-1h1.5h0.5v-1h1v-1.5V477h1v-1h1v-1h1v-1h1
				v-1h1v-1h1v-1h1v-1h1v-1h1v-1h1v-1.5v-1V465h-0.5H731v-1h-0.5H729v-1h-1v-1h-0.5H726v-1h-0.5H724v-1h-1v-1h-0.5H721V458L721,458z
				"/>
		</g>
		<g>
			<polygon fill="#2E3192" points="723,490 723,489 721,489 721,487 720,487 720,482 721,482 721,481 722,481 722,479 723,479 
				723,478 725,478 725,477 726,477 726,476 727,476 727,475 728,475 728,474 729,474 729,473 730,473 730,472 731,472 731,471 
				732,471 732,470 733,470 733,469 734,469 734,468 736,468 736,470 737,470 737,472 738,472 738,473 739,473 739,475 740,475 
				740,477 741,477 741,478 742,478 742,480 743,480 743,484 740,484 740,485 736,485 736,486 732,486 732,487 728,487 728,488 
				726,488 726,489 725,489 725,490 			"/>
			<path d="M735,469v2h1v2h1v1h1v2h1v2h1v1h1v2h1v3h-3v1h-4v1h-4v1h-4v1h-2v1h-1v1h-1v-1h-2v-2h-1v-4h1v-1h1v-2h1v-1h2v-1h1v-1h1v-1
				h1v-1h1v-1h1v-1h1v-1h1v-1h1v-1h1v-1H735 M736,468h-0.5h-1H733v1h-1v1h-1v1h-1v1h-1v1h-1v1h-1v1h-1v1h-1v1h-1v1h-0.5H722v1h-1
				v0.5v1.5h-1v1h-1v0.5v4v1.5h1v0.5v1.5h1.5h0.5v1h1.5h1h0.5v-1h1v-1h1.5h0.5v-1h3.5h0.5v-1h3.5h0.5v-1h3.5h0.5v-1h2.5h0.5v-1.5v-3
				V480h-1v-1.5V478h-1v-1h-1v-1.5V475h-1v-1.5V473h-1v-1h-1v-1.5V470h-1v-1.5V468L736,468z"/>
		</g>
	</g>
	<g>
		<polygon fill="#FF00FF" points="829,530 829,529 827,529 827,528 822,528 822,527 819,527 819,526 815,526 815,525 812,525 
			812,524 808,524 808,523 805,523 805,522 801,522 801,516 799,516 799,514 800,514 800,510 801,510 801,506 802,506 802,502 
			803,502 803,499 804,499 804,495 805,495 805,491 806,491 806,487 813,487 813,488 817,488 817,490 820,490 820,491 824,491 
			824,492 828,492 828,493 832,493 832,494 839,494 839,495 843,495 843,502 842,502 842,506 841,506 841,510 840,510 840,514 
			839,514 839,518 838,518 838,522 837,522 837,526 836,526 836,530 		"/>
		<path d="M812,488v1h4v2h3v1h4v1h4v1h4v1h7v1h4v6h-1v4h-1v4h-1v4h-1v4h-1v4h-1v4h-1v4h-6v-1h-2v-1h-5v-1h-3v-1h-4v-1h-3v-1h-4v-1
			h-3v-1h-4v-6h-2v-1h1v-4h1v-4h1v-4h1v-3h1v-4h1v-4h1v-4H812 M813,487h-0.5h-6H805v0.5v3.5h-1v0.5v3.5h-1v0.5v3.5h-1v0.5v2.5h-1
			v0.5v3.5h-1v0.5v3.5h-1v0.5v3.5h-1v0.5v1v1.5h1.5h0.5v4.5v1.5h1.5h2.5v1h1.5h1.5v1h1.5h2.5v1h1.5h1.5v1h1.5h2.5v1h1.5h1.5v1h1.5
			h3.5v1h1.5h0.5v1h1.5h6h0.5v-1.5V527h1v-1.5V523h1v-1.5V519h1v-1.5V515h1v-1.5V511h1v-1.5V507h1v-1.5V503h1v-1.5v-6V495h-0.5H839
			v-1h-0.5H832v-1h-0.5H828v-1h-0.5H824v-1h-0.5H820v-1h-0.5H817v-1.5V488h-0.5H813V487L813,487z"/>
	</g>
	<g>
		<polygon fill="#603813" points="769,479 769,449 771,449 771,450 775,450 775,451 779,451 779,452 780,452 780,444 799,444 
			799,446 798,446 798,450 797,450 797,454 796,454 796,458 795,458 795,461 794,461 794,465 793,465 793,469 792,469 792,473 
			791,473 791,477 790,477 790,478 787,478 787,477 783,477 783,476 779,476 779,477 775,477 775,478 771,478 771,479 		"/>
		<path d="M798,445v1h-1v4h-1v4h-1v4h-1v3h-1v4h-1v4h-1v4h-1v4h-1v1h-2v-1h-4v-1h-5v1h-4v1h-4v1h-1v-29h1v1h4v1h4v1h2v-8H798
			 M799,444h-0.5h-18H779v0.5v6.5h-0.5H775v-1h-0.5H771v-1h-0.5h-1H768v0.5v29v1.5h1.5h1h0.5v-1h3.5h0.5v-1h3.5h0.5v-1h3v1h1.5h2.5
			v1h1.5h2h0.5v-1h1v-1.5V474h1v-1.5V470h1v-1.5V466h1v-1.5V462h1v-1.5V459h1v-1.5V455h1v-1.5V451h1v-1.5V447h1v-1.5v-1V444L799,444
			z"/>
	</g>
	<g>
		<polygon fill="#603813" points="571,444 571,432 562,432 562,376 572,376 572,380 575,380 575,376 585,376 585,425 616,425 
			616,443 582,443 582,444 		"/>
		<path d="M584,377v49h31v17h-34v1h-10v-12h-9v-55h9v4h4v-4H584 M585,376h-0.5h-9H574v0.5v3.5h-2v-3.5V376h-0.5h-9H561v0.5v55v1.5
			h1.5h7.5v10.5v1.5h1.5h10h0.5v-1h33.5h0.5v-1.5v-17V425h-0.5H585v-48.5V376L585,376z"/>
	</g>
	<g>
		<polygon fill="#FF7BAC" points="617,444 617,443 616,443 616,376 625,376 625,380 628,380 628,376 638,376 638,444 		"/>
		<path d="M637,377v67h-20v-1h-1v-17.5V377h8v4h4v-4H637 M638,376h-0.5h-9H627v0.5v3.5h-2v-3.5V376h-0.5h-8H615v0.5v49v17v1.5h1v1
			h1.5h20h0.5v-1.5v-67V376L638,376z"/>
	</g>
	<g>
		<g>
			<rect x="756" y="328" fill="#FF0000" width="16" height="15"/>
			<path d="M771,329v14h-15v-14H771 M772,328h-0.5h-15H755v0.5v14v1.5h1.5h15h0.5v-1.5v-14V328L772,328z"/>
		</g>
		<g>
			<rect x="764" y="343" fill="#FF0000" width="7" height="3"/>
			<path d="M770,344v2h-6v-2H770 M771,343h-0.5h-6H763v0.5v2v1.5h1.5h6h0.5v-1.5v-2V343L771,343z"/>
		</g>
		<g>
			<rect x="727" y="346" fill="#FF0000" width="45" height="18"/>
			<path d="M771,347v17h-44v-17H771 M772,346h-0.5h-44H726v0.5v17v1.5h1.5h44h0.5v-1.5v-17V346L772,346z"/>
		</g>
		<g>
			<polygon fill="#FF0000" points="727,444 727,376 737,376 737,364 740,364 740,376 750,376 750,444 			"/>
			<path d="M739,365v12h10v67h-22v-18.5V377h10v-12H739 M740,364h-0.5h-2H736v0.5V376h-8.5H726v0.5v49v18v1.5h1.5h22h0.5v-1.5v-67
				V376h-0.5H740v-11.5V364L740,364z"/>
		</g>
		<g>
			<polygon fill="#FF0000" points="750,444 750,425 772,425 772,376 782,376 782,379 785,379 785,376 794,376 794,431 781,431 
				781,444 			"/>
			<path d="M793,377v54h-13v13h-30v-18h22v-49h9v3h4v-3H793 M794,376h-0.5h-8H784v0.5v2.5h-2v-2.5V376h-0.5h-9H771v0.5V425h-20.5
				H749v0.5v18v1.5h1.5h30h0.5v-1.5V432h12.5h0.5v-1.5v-54V376L794,376z"/>
		</g>
	</g>
	<g>
		<polygon fill="#CFAAD0" points="837,444 837,443 833,443 833,442 829,442 829,441 826,441 826,440 822,440 822,439 818,439 
			818,438 817,438 817,444 814,444 814,443 810,443 810,442 806,442 806,441 802,441 802,440 800,440 800,443 799,443 799,444 
			780,444 780,430 817,430 817,376 826,376 826,364 829,364 829,376 839,376 839,444 		"/>
		<path d="M828,365v12h10v67h-1v-1h-4v-1h-4v-1h-3v-1h-4v-1h-4v-1h-2v6h-2v-1h-4v-1h-4v-1h-4v-1h-3v3h-1v1h-18v-13h37v-54h9v-12H828
			 M829,364h-0.5h-2H825v0.5V376h-7.5H816v0.5V430h-35.5H779v0.5v13v1.5h1.5h18h0.5v-1h1v-1.5V441h1v1h1.5h2.5v1h1.5h2.5v1h1.5h2.5
			v1h1.5h2h0.5v-1.5v-5v1.5h1.5h2.5v1h1.5h2.5v1h1.5h1.5v1h1.5h2.5v1h1.5h2.5v1h1.5h1h0.5v-1.5v-67V376h-0.5H829v-11.5V364L829,364z
			"/>
	</g>
	<polygon fill="#FF931E" stroke="#000000" stroke-miterlimit="10" points="722.5,649.5 725.5,649.5 725.5,648.5 727.5,648.5 
		727.5,647.5 728.5,647.5 728.5,646.5 729.5,646.5 729.5,645.5 730.5,645.5 730.5,644.5 731.5,644.5 731.5,643.5 732.5,643.5 
		732.5,642.5 733.5,642.5 733.5,641.5 734.5,641.5 734.5,639.5 735.5,639.5 735.5,638.5 736.5,638.5 736.5,637.5 739.5,637.5 
		739.5,636.5 740.5,636.5 740.5,635.5 741.5,635.5 741.5,634.5 742.5,634.5 742.5,633.5 743.5,633.5 743.5,631.5 744.5,631.5 
		744.5,630.5 745.5,630.5 745.5,629.5 746.5,629.5 746.5,628.5 747.5,628.5 747.5,629.5 748.5,629.5 748.5,630.5 749.5,630.5 
		749.5,629.5 751.5,629.5 751.5,628.5 752.5,628.5 752.5,627.5 753.5,627.5 753.5,626.5 754.5,626.5 754.5,625.5 755.5,625.5 
		755.5,624.5 756.5,624.5 756.5,623.5 757.5,623.5 757.5,622.5 758.5,622.5 758.5,623.5 759.5,623.5 759.5,624.5 760.5,624.5 
		760.5,625.5 761.5,625.5 761.5,626.5 762.5,626.5 762.5,628.5 763.5,628.5 763.5,629.5 764.5,629.5 764.5,630.5 765.5,630.5 
		765.5,631.5 766.5,631.5 766.5,632.5 767.5,632.5 767.5,633.5 768.5,633.5 768.5,634.5 769.5,634.5 769.5,635.5 770.5,635.5 
		770.5,636.5 771.5,636.5 771.5,637.5 772.5,637.5 772.5,639.5 773.5,639.5 773.5,641.5 774.5,641.5 774.5,642.5 775.5,642.5 
		775.5,643.5 776.5,643.5 776.5,644.5 777.5,644.5 777.5,645.5 778.5,645.5 778.5,646.5 779.5,646.5 779.5,647.5 781.5,647.5 
		781.5,648.5 782.5,648.5 782.5,651.5 783.5,651.5 783.5,652.5 784.5,652.5 784.5,653.5 785.5,653.5 785.5,654.5 786.5,654.5 
		786.5,655.5 784.5,655.5 784.5,656.5 783.5,656.5 783.5,657.5 782.5,657.5 782.5,658.5 781.5,658.5 781.5,659.5 780.5,659.5 
		780.5,660.5 779.5,660.5 779.5,661.5 778.5,661.5 778.5,662.5 777.5,662.5 777.5,664.5 778.5,664.5 778.5,666.5 779.5,666.5 
		778.5,666.5 778.5,667.5 778.5,668.5 777.5,668.5 777.5,669.5 775.5,669.5 775.5,670.5 774.5,670.5 774.5,671.5 773.5,671.5 
		773.5,672.5 772.5,672.5 772.5,673.5 770.5,673.5 770.5,674.5 769.5,674.5 769.5,675.5 768.5,675.5 768.5,676.5 767.5,676.5 
		767.5,677.5 766.5,677.5 766.5,678.5 765.5,678.5 765.5,679.5 764.5,679.5 764.5,680.5 763.5,680.5 763.5,681.5 762.5,681.5 
		762.5,682.5 760.5,682.5 760.5,683.5 759.5,683.5 759.5,684.5 758.5,684.5 758.5,685.5 757.5,685.5 757.5,686.5 756.5,686.5 
		756.5,687.5 755.5,687.5 755.5,689.5 754.5,689.5 754.5,690.5 753.5,690.5 753.5,691.5 751.5,691.5 751.5,692.5 750.5,692.5 
		750.5,693.5 749.5,693.5 749.5,694.5 748.5,694.5 748.5,695.5 745.5,695.5 744.5,695.5 744.5,694.5 744.5,693.5 743.5,693.5 
		743.5,692.5 742.5,692.5 742.5,691.5 741.5,691.5 741.5,690.5 739.5,690.5 739.5,689.354 739.5,688.5 745.5,688.5 745.5,687.5 
		746.5,687.5 746.5,686.5 747.5,686.5 747.5,683.5 745.5,683.5 745.5,682.5 744.5,682.5 744.5,681.5 743.5,681.5 743.5,680.5 
		742.5,680.5 742.5,678.5 741.5,678.5 741.5,677.5 740.5,677.5 740.5,676.5 739.5,676.5 739.5,675.5 738.5,675.5 738.5,674.5 
		737.5,674.5 737.5,673.5 736.5,673.5 736.5,672.5 735.5,672.5 735.5,671.5 734.5,671.5 734.5,670.5 733.5,670.5 733.5,668.5 
		732.5,668.5 732.5,667.5 731.5,667.5 731.5,666.5 730.5,666.5 730.5,665.5 729.5,665.5 729.5,664.5 728.5,664.5 728.5,663.5 
		727.5,663.5 727.5,662.5 726.5,662.5 726.5,661.5 725.5,661.5 725.5,659.5 724.5,659.5 724.5,658.5 723.5,658.5 723.5,657.5 
		722.5,657.5 722.5,656.5 721.5,656.5 721.5,655.5 720.5,655.5 720.5,654.5 719.5,654.5 719.5,652.5 720.5,652.5 720.5,651.5 
		722.5,651.5 722.5,651 	"/>
	<path fill="#FF0000" stroke="#000000" stroke-miterlimit="10" d="M749.458,688.541"/>
	<g>
		<g>
			<polygon fill="#00A99D" points="596,714 596,706 601,706 601,705 604,705 604,702 603,702 603,696 602,696 602,690 601,690 
				601,684 600,684 600,680 605,680 605,682 608,682 608,680 607,680 607,678 610,678 610,677 615,677 615,680 616,680 616,686 
				617,686 617,690 622,690 622,689 627,689 627,688 633,688 633,687 634,687 634,684 635,684 635,683 638,683 638,684 639,684 
				639,686 641,686 641,688 642,688 642,693 643,693 643,698 644,698 644,701 640,701 640,702 634,702 634,703 627,703 627,704 
				621,704 621,705 615,705 615,708 613,708 613,712 610,712 610,713 602,713 602,714 			"/>
			<path d="M614,678v3h1v6h1v4h6v-1h5v-1h6v-1h1v-3h1v-1h2v1h1v2h2v2h1v5h1v5h1v2h-4v1h-6v1h-7v1h-6v1h-6v3h-2v4h-3v1h-8v1h-5v-7h5
				v-1h3v-4h-1v-6h-1v-6h-1v-6h-1v-3h4v2h4v-3h-1v-1h3v-1H614 M615,677h-0.5h-4H609v1h-1.5H606v0.5v1v1.5h1v1h-2v-1.5V680h-0.5h-4
				H599v0.5v3v1.5h1v4.5v1.5h1v4.5v1.5h1v4.5v1.5h1v2h-1.5H600v1h-3.5H595v0.5v7v1.5h1.5h5h0.5v-1h7.5h0.5v-1h2.5h0.5v-1.5V709h1.5
				h0.5v-1.5V706h5.5h0.5v-1h5.5h0.5v-1h6.5h0.5v-1h5.5h0.5v-1h3.5h0.5v-1.5v-2V698h-1v-4.5V693h-1v-4.5V688h-1v-1.5V686h-0.5H639
				v-1.5V684h-1v-1h-0.5h-2H634v1h-1v0.5v2.5h-1v1h-4.5H626v1h-3.5H621v1h-4v-3.5V686h-1v-5.5V680h-1v-2.5V677L615,677z"/>
		</g>
		<g>
			<polygon fill="#00A99D" points="581,676 581,674 580,674 580,671 582,671 582,670 589,670 589,669 593,669 593,670 594,670 
				594,674 592,674 592,675 586,675 586,676 			"/>
			<path d="M592,670v1h1v3h-2v1h-6v1h-4v-2h-1v-2h2v-1h7v-1H592 M593,669h-0.5h-3H588v1h-5.5H581v1h-0.5H579v0.5v2v1.5h1v0.5v1.5
				h1.5h4h0.5v-1h5.5h0.5v-1h1.5h0.5v-1.5v-3V670h-1V669L593,669z"/>
		</g>
	</g>
	<g>
		<g>
			<polygon fill="#7AC943" points="638,444 638,425 660,425 660,415 661,415 661,376 670,376 670,364 673,364 673,376 683,376 
				683,380 710,380 710,381 720,381 720,391 705,391 705,444 			"/>
			<path d="M672,365v12h10v4h27v1h10v9h-15v53h-66v-18h22v-10h1v-39h9v-12H672 M673,364h-0.5h-2H669v0.5V376h-7.5H660v0.5V415h-1
				v0.5v9.5h-20.5H637v0.5v18v1.5h1.5h66h0.5v-1.5V392h14.5h0.5v-1.5v-9V381h-0.5H710v-1h-0.5H683v-3.5V376h-0.5H673v-11.5V364
				L673,364z"/>
		</g>
		<rect x="704.5" y="425.5" fill="#7AC943" stroke="#000000" stroke-miterlimit="10" width="22" height="19"/>
	</g>
</g>
</svg>
